<svg width="393" height="443" viewBox="0 0 393 443" fill="none" xmlns="http://www.w3.org/2000/svg">
<g clip-path="url(#clip0_1_2955)">
<mask id="mask0_1_2955" style="mask-type:alpha" maskUnits="userSpaceOnUse" x="-237" y="0" width="836" height="443">
<rect x="-236.491" width="834.98" height="442.7" fill="url(#paint0_linear_1_2955)"/>
</mask>
<g mask="url(#mask0_1_2955)">
<path d="M536.157 360.975C536.157 544.271 387.69 692.862 204.547 692.862C21.4041 692.862 -127.063 544.271 -127.063 360.975C-127.063 177.679 21.4041 29.0886 204.547 29.0886C387.69 29.0886 536.157 177.679 536.157 360.975Z" stroke="black" stroke-opacity="0.02" stroke-width="0.554068"/>
</g>
</g>
<path d="M345.266 360.976C345.266 443.291 278.661 510.02 196.499 510.02C114.338 510.02 47.7319 443.291 47.7319 360.976C47.7319 278.66 114.338 211.931 196.499 211.931C278.661 211.931 345.266 278.66 345.266 360.976Z" stroke="black" stroke-opacity="0.08" stroke-width="0.554068"/>
<path d="M406.214 360.976C406.214 476.951 312.321 570.968 196.499 570.968C80.6774 570.968 -13.2154 476.951 -13.2154 360.976C-13.2154 245 80.6774 150.984 196.499 150.984C312.321 150.984 406.214 245 406.214 360.976Z" stroke="black" stroke-opacity="0.06" stroke-width="0.554068"/>
<path d="M464.946 360.976C464.946 509.387 344.758 629.699 196.5 629.699C48.2417 629.699 -71.9459 509.387 -71.9459 360.976C-71.9459 212.564 48.2417 92.2526 196.5 92.2526C344.758 92.2526 464.946 212.564 464.946 360.976Z" stroke="black" stroke-opacity="0.04" stroke-width="0.554068"/>
<defs>
<linearGradient id="paint0_linear_1_2955" x1="180.999" y1="0" x2="180.999" y2="442.7" gradientUnits="userSpaceOnUse">
<stop offset="0.792897" stop-color="#D9D9D9"/>
<stop offset="0.936436" stop-color="#737373" stop-opacity="0"/>
</linearGradient>
<clipPath id="clip0_1_2955">
<rect width="538" height="478" fill="white" transform="translate(-88)"/>
</clipPath>
</defs>
</svg>
