<svg width="98" height="28" viewBox="0 0 98 28" fill="none" xmlns="http://www.w3.org/2000/svg">
<g clip-path="url(#clip0_988_6361)">
<path d="M95.3461 18.8223V19.1245H94.8412V20.6889H94.461V19.1245H93.9561V18.8223H95.3461Z" fill="#9DA7B0"/>
<path d="M97.689 18.8223V20.6889H97.309V19.4748L96.8012 20.6889H96.5134L96.0031 19.4748V20.6889H95.623V18.8223H96.0546L96.6573 20.2103L97.26 18.8223H97.689Z" fill="#9DA7B0"/>
<path fill-rule="evenodd" clip-rule="evenodd" d="M60.2014 10.825C59.7545 11.0093 59.3404 11.2928 58.9594 11.6756C58.5783 12.0584 58.296 12.4743 58.1078 12.9232C57.9197 13.3816 57.8209 13.8778 57.8114 14.4213C57.8021 14.96 57.8821 15.4704 58.0561 15.9383C58.2255 16.3966 58.4889 16.8267 58.8512 17.2236C59.2086 17.6206 59.6039 17.9184 60.0367 18.1262C60.4742 18.3342 60.9541 18.4524 61.4668 18.4807C62.0174 18.509 62.5254 18.4239 62.9818 18.2349C63.4429 18.0459 63.871 17.7435 64.2567 17.337C64.6567 16.9164 64.9483 16.4628 65.1412 15.9761C65.3294 15.4893 65.4187 14.9647 65.4094 14.4024C65.3999 13.8731 65.2965 13.3816 65.1082 12.9279C64.92 12.4743 64.6378 12.0537 64.2756 11.6709C63.9179 11.2976 63.5228 11.014 63.0947 10.8297C62.6618 10.6454 62.1914 10.5509 61.6786 10.5509C61.1424 10.5509 60.653 10.6407 60.2014 10.825ZM67.9263 14.5158V14.5961V20.2198V20.7254H67.4229H65.9551H65.4517V20.2198V19.629C65.0283 19.974 64.5767 20.2576 64.1015 20.4702C63.2781 20.8388 62.3796 21.0089 61.4105 20.9758C60.5589 20.9428 59.7733 20.7632 59.0487 20.4371C58.3243 20.1111 57.6657 19.6338 57.0729 19.0052C56.4847 18.3814 56.0378 17.6914 55.7368 16.9447C55.4356 16.1934 55.2851 15.3901 55.2851 14.53C55.2851 13.6368 55.445 12.8003 55.7696 12.0253C56.0896 11.2503 56.5695 10.5414 57.1998 9.9082C57.8349 9.26077 58.536 8.78348 59.3076 8.47631C60.0791 8.16913 60.9118 8.03209 61.801 8.06516C62.6618 8.09824 63.457 8.27782 64.1909 8.60862C64.9248 8.93943 65.5976 9.42145 66.195 10.0594C66.7973 10.6832 67.2442 11.3732 67.5358 12.1246C67.8228 12.8665 67.9546 13.6652 67.9263 14.5158ZM44.0129 12.4459C43.886 12.668 43.7777 12.9043 43.6931 13.1548H51.0603C50.9757 12.9138 50.8723 12.6869 50.7498 12.4743C50.5335 12.0962 50.2511 11.7607 49.9078 11.4677C49.5644 11.1794 49.1879 10.9573 48.7786 10.8061C48.3647 10.6549 47.913 10.5745 47.4238 10.5651C46.9439 10.5556 46.4923 10.6265 46.0689 10.7683C45.6454 10.9148 45.2502 11.1369 44.8832 11.4299C44.5211 11.7229 44.2341 12.0631 44.0129 12.4459ZM34.3779 13.117H36.9749V20.7207H34.3779V13.117H36.9749C36.9749 11.7465 38.0805 10.6407 39.44 10.6407H40.1035V8.03209H39.44C36.6455 8.03209 34.3779 10.3099 34.3779 13.117ZM70.669 4.35547H72.1793H72.6827V4.86112V20.2198V20.7254H72.1793H70.669H70.1657V20.2198V4.86112V4.35547H70.669ZM82.2235 15.9619C82.393 16.4202 82.6563 16.8503 83.0186 17.2473C83.3809 17.6489 83.776 17.9467 84.2042 18.1498C84.6323 18.3531 85.1074 18.4617 85.6203 18.4807H85.6296C86.1848 18.509 86.6882 18.4287 87.1492 18.2397C87.6103 18.0506 88.0337 17.7528 88.4195 17.3417L88.4242 17.337C88.8241 16.9164 89.1157 16.4675 89.3086 15.9854C89.4969 15.5035 89.5862 14.9884 89.5768 14.4307C89.558 13.8967 89.4546 13.4052 89.2617 12.9468C89.0688 12.4932 88.7911 12.0726 88.4242 11.6851C88.0667 11.307 87.6714 11.0282 87.248 10.8392C86.8246 10.6549 86.3588 10.5651 85.8508 10.5651H85.8413C85.3098 10.5556 84.8157 10.6501 84.3688 10.8392C83.9219 11.0282 83.5078 11.3165 83.1269 11.6992C82.7458 12.082 82.4634 12.4979 82.2754 12.9468C82.0871 13.4052 81.9883 13.9014 81.9789 14.4449C81.9695 14.9836 82.0495 15.4893 82.2235 15.9619ZM91.6375 12.1198C91.9385 12.8712 92.089 13.6746 92.089 14.5347C92.089 15.4184 91.9243 16.2454 91.5998 17.0205C91.2752 17.7906 90.7906 18.4995 90.1555 19.1423C89.5204 19.7802 88.8146 20.2576 88.043 20.5647C87.2763 20.8719 86.453 21.0136 85.5731 20.9806C84.7216 20.957 83.9266 20.7821 83.1973 20.4561C82.4682 20.1299 81.8048 19.6526 81.2168 19.0289C80.624 18.4003 80.1817 17.715 79.8901 16.9684C79.5937 16.2217 79.4478 15.4137 79.4478 14.5536C79.4478 13.6604 79.6077 12.824 79.9324 12.049C80.2523 11.2739 80.7322 10.5651 81.3626 9.93182C81.9977 9.2844 82.6986 8.80238 83.4655 8.49048C84.2324 8.17859 85.0604 8.03681 85.9449 8.06989C86.8011 8.10297 87.6008 8.28255 88.3349 8.62281C89.0593 8.9536 89.7179 9.43563 90.3061 10.0689C90.8894 10.6879 91.3363 11.3732 91.6375 12.1198ZM75.5384 8.34398H77.0297H77.5331V8.84964V20.2198V20.7254H77.0297H75.5384H75.0349V20.2198V8.84964V8.34398H75.5384ZM75.5384 4.35547H77.0297H77.5331V4.86112V6.43951H75.0397V4.86112V4.35547H75.5384ZM49.5079 17.9184C49.8607 17.6914 50.1665 17.389 50.4347 17.011H53.2621C53.0552 17.526 52.7917 17.9986 52.4717 18.4287C52.0812 18.9579 51.6155 19.4164 51.0652 19.8087C50.5193 20.1962 49.9406 20.4891 49.3338 20.6876C48.7317 20.886 48.0965 20.9853 47.4284 20.9994C46.5864 21.0089 45.7912 20.8624 45.0433 20.5553C44.2952 20.2481 43.6036 19.785 42.9638 19.1659L42.9592 19.1612C42.3192 18.528 41.83 17.8379 41.5007 17.0866C41.1714 16.3351 40.9973 15.5224 40.9831 14.6481C40.9596 13.7313 41.1149 12.8665 41.4395 12.0679C41.7642 11.2739 42.2581 10.5414 42.9215 9.8893C43.5943 9.22297 44.3282 8.73149 45.1184 8.41959C45.9136 8.1077 46.7698 7.97537 47.6873 8.02736C48.5058 8.07934 49.2727 8.27782 49.983 8.61335C50.6934 8.94887 51.3473 9.4309 51.9448 10.0547C52.5235 10.6643 52.9564 11.3212 53.2481 12.0159C53.5444 12.72 53.6903 13.4572 53.6903 14.2322V15.0498V15.5555H53.1868H49.2585H43.6083C43.6789 15.8532 43.7823 16.1368 43.9141 16.3966C44.1258 16.8077 44.4175 17.181 44.7891 17.5024C45.1702 17.8333 45.5843 18.0837 46.0217 18.2444C46.464 18.4098 46.9439 18.4902 47.4519 18.4807H47.4567C48.2753 18.4712 48.9527 18.2822 49.5079 17.9184Z" fill="#9DA7B0"/>
<path fill-rule="evenodd" clip-rule="evenodd" d="M27.8444 14.0775C27.8444 6.38636 21.6134 0.155273 13.9222 0.155273C6.23109 0.155273 0 6.38636 0 14.0775C0 21.7686 6.23109 27.9997 13.9222 27.9997C21.6134 27.9997 27.8444 21.764 27.8444 14.0775ZM19.6541 6.99393H13.5549C13.2911 6.99393 13.0745 7.21057 13.0745 7.47433V12.8859C13.0745 13.5264 12.4904 14.0728 11.8122 14.0728H7.15893C6.96111 14.0728 6.79156 14.1858 6.71149 14.3695C6.63614 14.5532 6.67382 14.7557 6.81511 14.897L12.9332 21.0151C13.0274 21.1092 13.1404 21.1564 13.2723 21.1564H18.9899C19.1878 21.1564 19.3573 21.0433 19.4374 20.8596C19.5127 20.676 19.4751 20.4735 19.3338 20.3321L13.3288 14.3318L13.2158 14.2188L13.0697 14.0775H13.1121C16.814 14.0539 19.866 11.1574 20.1345 7.51672C20.1438 7.38013 20.1015 7.25296 20.0072 7.15406C19.9131 7.04573 19.7954 6.99393 19.6541 6.99393ZM13.9222 1.37512C20.9398 1.37512 26.6246 7.05987 26.6246 14.0775C26.6246 21.0904 20.9398 26.7799 13.9222 26.7799C6.90931 26.7799 1.21984 21.0951 1.21984 14.0775C1.21984 7.05987 6.9046 1.37512 13.9222 1.37512Z" fill="#9DA7B0"/>
</g>
<defs>
<clipPath id="clip0_988_6361">
<rect width="97.6889" height="28" fill="white"/>
</clipPath>
</defs>
</svg>

