<svg width="98" height="28" viewBox="0 0 98 28" fill="none" xmlns="http://www.w3.org/2000/svg">
<g clip-path="url(#clip0_252_20262)">
<path fill-rule="evenodd" clip-rule="evenodd" d="M28 14C28 6.26588 21.7341 0 14 0C6.26588 0 0 6.26588 0 14C0 21.7341 6.26588 28 14 28C21.7341 28 28 21.7294 28 14ZM19.7639 6.87685H13.6306C13.3653 6.87685 13.1475 7.09473 13.1475 7.35997V12.8017C13.1475 13.4459 12.5602 13.9953 11.8782 13.9953H7.19889C7 13.9953 6.82948 14.1089 6.749 14.2936C6.67321 14.4783 6.71108 14.682 6.85317 14.8241L13.0054 20.9763C13.1002 21.071 13.2138 21.1184 13.3464 21.1184H19.0961C19.295 21.1184 19.4655 21.0047 19.546 20.82C19.6218 20.6353 19.5839 20.4316 19.4418 20.2896L13.4033 14.2557L13.2896 14.1421L13.1428 14H13.1854C16.908 13.9763 19.977 11.0636 20.2469 7.40258C20.2564 7.26524 20.2138 7.13734 20.1191 7.03787C20.0244 6.92896 19.906 6.87685 19.7639 6.87685ZM14 1.22666C21.0569 1.22666 26.7734 6.94315 26.7734 14C26.7734 21.0521 21.0569 26.7734 14 26.7734C6.94789 26.7734 1.22666 21.0569 1.22666 14C1.22666 6.94315 6.94315 1.22666 14 1.22666Z" fill="#0B1928"/>
</g>
<g clip-path="url(#clip1_252_20262)">
<path fill-rule="evenodd" clip-rule="evenodd" d="M65.616 11.9666C65.1448 12.1721 64.7194 12.4696 64.3647 12.8417C63.9916 13.1954 63.6939 13.621 63.4897 14.0929C63.2989 14.569 63.198 15.0763 63.1922 15.5891C63.1802 16.1052 63.2664 16.6189 63.446 17.1029C63.8093 18.0609 64.5222 18.8457 65.441 19.2991C65.8912 19.5104 66.3791 19.6294 66.876 19.6491C67.3954 19.6817 67.9155 19.598 68.3985 19.4042C68.8848 19.2076 69.3233 18.9093 69.6847 18.5291C70.0677 18.1438 70.3676 17.6842 70.5663 17.1786C70.7649 16.673 70.858 16.1321 70.8398 15.5891C70.8357 15.0818 70.7347 14.5799 70.5422 14.1104C70.3329 13.6414 70.0359 13.2167 69.6673 12.8591C69.3363 12.4874 68.9309 12.1892 68.4773 11.9842C68.0255 11.7959 67.5404 11.7006 67.051 11.7042C66.5416 11.6991 66.0362 11.7942 65.5635 11.9842L65.616 11.9666ZM73.3335 15.6767V21.8979H70.8485V20.7866C70.4362 21.1401 69.9768 21.4346 69.4835 21.6617C68.6346 22.0406 67.7084 22.2145 66.7798 22.1691C65.9592 22.1486 65.1505 21.9673 64.3997 21.6354C62.8936 20.9243 61.7077 19.676 61.0748 18.1354C60.7671 17.3678 60.6125 16.5474 60.6198 15.7204C60.6102 14.8595 60.7739 14.0055 61.101 13.2091C61.4372 12.4121 61.9279 11.6894 62.5448 11.0829C63.1401 10.4446 63.8671 9.94338 64.6755 9.614C65.4838 9.28463 66.3541 9.13498 67.226 9.17541C68.055 9.20398 68.8712 9.38801 69.6322 9.71791C70.3918 10.0654 71.0756 10.559 71.6447 11.1704C72.2282 11.7645 72.6864 12.4697 72.9922 13.2442C73.2874 14.0137 73.4214 14.8357 73.386 15.6592L73.3335 15.6767ZM49.3235 13.5504C49.1944 13.7764 49.086 14.0136 48.9998 14.2591H56.4198C56.3327 14.0238 56.2274 13.7956 56.1048 13.5766C55.8683 13.1969 55.5729 12.8573 55.2297 12.5704C54.8914 12.2876 54.5065 12.0655 54.0922 11.9142C53.6487 11.7701 53.1848 11.6991 52.7185 11.7042C52.2546 11.6926 51.7924 11.7638 51.3535 11.9142C50.9193 12.0608 50.5159 12.2862 50.1635 12.5791C49.8306 12.8531 49.5466 13.1815 49.3235 13.5504ZM39.5935 14.2591H42.2185V21.8804H39.5935V14.2591H42.2185C42.2219 13.9328 42.2896 13.6103 42.4177 13.3102C42.5457 13.01 42.7317 12.738 42.9649 12.5097C43.1981 12.2813 43.4739 12.1012 43.7768 11.9795C44.0796 11.8578 44.4034 11.7969 44.7298 11.8004H45.3948V9.17541H44.7298C44.0584 9.1708 43.3927 9.29877 42.7709 9.55197C42.1491 9.80517 41.5834 10.1786 41.1062 10.6509C40.629 11.1232 40.2498 11.6851 39.9902 12.3043C39.7306 12.9234 39.5958 13.5878 39.5935 14.2591ZM76.1073 5.50916H78.1285V21.8804H75.5998V5.48291L76.1073 5.50916ZM87.7359 17.1379C88.106 18.0918 88.8169 18.8745 89.731 19.3342C90.1965 19.5533 90.7038 19.6696 91.2183 19.6754C91.7398 19.7061 92.2619 19.6256 92.7497 19.4391C93.2324 19.2454 93.6657 18.9465 94.0183 18.5642C94.3994 18.1845 94.6979 17.7308 94.8967 17.2312C95.0951 16.7316 95.1895 16.1966 95.1734 15.6592C95.162 15.148 95.0552 14.6435 94.8583 14.1717C94.6471 13.7012 94.3505 13.274 93.9837 12.9117C93.6514 12.541 93.2462 12.243 92.7934 12.0366C92.3478 11.85 91.868 11.7576 91.3849 11.7654C90.8775 11.7534 90.3735 11.8488 89.9061 12.0454C89.4348 12.2508 89.0096 12.5483 88.6546 12.9204C88.2835 13.2758 87.986 13.701 87.78 14.1717C87.398 15.139 87.3823 16.2124 87.7359 17.1904V17.1379ZM97.2036 13.2879C97.5079 14.0596 97.6621 14.8822 97.6583 15.7117C97.6626 16.5644 97.496 17.4093 97.1685 18.1966C96.8216 18.9922 96.3257 19.7139 95.7073 20.3229C95.107 20.939 94.3861 21.4246 93.5897 21.7491C92.7996 22.0599 91.9529 22.2001 91.1049 22.1604C90.281 22.1504 89.4681 21.9718 88.7159 21.6354C87.9617 21.2993 87.2831 20.8142 86.721 20.2091C85.5388 18.9785 84.8911 17.3304 84.919 15.6242C84.9469 13.9179 85.648 12.2918 86.8697 11.1004C87.4573 10.4602 88.1772 9.95624 88.9797 9.62371C89.7822 9.29118 90.6479 9.13818 91.5159 9.17541C92.343 9.20274 93.1574 9.38993 93.9134 9.72666C94.6661 10.0727 95.3419 10.5667 95.8995 11.1791C96.4761 11.7805 96.9308 12.4876 97.2383 13.2617L97.2036 13.2879ZM81.0073 9.50791H83.011V21.8804H80.4997V9.48166L81.0073 9.50791ZM81.0073 5.50916H83.011V7.60041H80.4997V5.48291L81.0073 5.50916ZM54.8535 19.0717C55.2179 18.8416 55.5356 18.5447 55.7897 18.1966H58.6335C58.4312 18.7046 58.1635 19.1841 57.8373 19.6229C57.4465 20.1578 56.9706 20.6249 56.4285 21.0054C55.3587 21.7649 54.0828 22.18 52.771 22.1954C51.95 22.2089 51.1347 22.0571 50.3735 21.7491C49.594 21.4232 48.8841 20.9509 48.2822 20.3579C47.663 19.768 47.1638 19.0638 46.8122 18.2842C46.4733 17.5117 46.2976 16.6777 46.296 15.8342C46.2604 14.9368 46.4155 14.0422 46.751 13.2091C47.0925 12.3888 47.5988 11.6472 48.2385 11.0304C48.8682 10.3922 49.6215 9.88903 50.4522 9.55166C51.2892 9.23527 52.1847 9.10392 53.0773 9.16666C53.8777 9.21204 54.662 9.41108 55.3873 9.75291C56.1276 10.1118 56.7974 10.6009 57.3647 11.1966C57.916 11.7695 58.3604 12.4362 58.6773 13.1654C58.9741 13.8656 59.1259 14.6187 59.1235 15.3791V16.7004H48.9385C49.0029 17.0051 49.1089 17.2996 49.2535 17.5754C49.4701 17.9967 49.7674 18.3713 50.1285 18.6779C50.8641 19.3405 51.825 19.6974 52.8148 19.6754C53.5388 19.6784 54.2478 19.4685 54.8535 19.0717Z" fill="#0B1928"/>
</g>
<defs>
<clipPath id="clip0_252_20262">
<rect width="28" height="28" fill="white"/>
</clipPath>
<clipPath id="clip1_252_20262">
<rect width="58.3729" height="17.0847" fill="white" transform="translate(39.3899 5.45752)"/>
</clipPath>
</defs>
</svg>
