<svg width="98" height="28" viewBox="0 0 98 28" fill="none" xmlns="http://www.w3.org/2000/svg">
<g clip-path="url(#clip0_0_3707)">
<path fill-rule="evenodd" clip-rule="evenodd" d="M28 14C28 6.26588 21.7341 0 14 0C6.26588 0 0 6.26588 0 14C0 21.7341 6.26588 28 14 28C21.7341 28 28 21.7294 28 14ZM19.7639 6.87685H13.6306C13.3653 6.87685 13.1475 7.09473 13.1475 7.35997V12.8017C13.1475 13.4459 12.5602 13.9953 11.8782 13.9953H7.19889C7 13.9953 6.82948 14.1089 6.749 14.2936C6.67321 14.4783 6.71108 14.682 6.85317 14.8241L13.0054 20.9763C13.1002 21.071 13.2138 21.1184 13.3464 21.1184H19.0961C19.295 21.1184 19.4655 21.0047 19.546 20.82C19.6218 20.6353 19.5839 20.4316 19.4418 20.2896L13.4033 14.2557L13.2896 14.1421L13.1428 14H13.1854C16.908 13.9763 19.977 11.0636 20.2469 7.40258C20.2564 7.26524 20.2138 7.13734 20.1191 7.03787C20.0244 6.92896 19.906 6.87685 19.7639 6.87685ZM14 1.22666C21.0569 1.22666 26.7734 6.94315 26.7734 14C26.7734 21.0521 21.0569 26.7734 14 26.7734C6.94789 26.7734 1.22666 21.0569 1.22666 14C1.22666 6.94315 6.94315 1.22666 14 1.22666Z" fill="#9DA7B0"/>
</g>
<g clip-path="url(#clip1_0_3707)">
<path fill-rule="evenodd" clip-rule="evenodd" d="M65.6161 11.9668C65.1449 12.1722 64.7195 12.4697 64.3648 12.8418C63.9917 13.1955 63.694 13.6211 63.4899 14.093C63.299 14.5691 63.1982 15.0764 63.1924 15.5892C63.1804 16.1053 63.2665 16.619 63.4461 17.103C63.8095 18.061 64.5223 18.8458 65.4411 19.2992C65.8913 19.5105 66.3792 19.6295 66.8761 19.6492C67.3955 19.6818 67.9156 19.5981 68.3986 19.4043C68.8849 19.2077 69.3235 18.9094 69.6848 18.5292C70.0678 18.1439 70.3678 17.6843 70.5664 17.1787C70.765 16.6731 70.8581 16.1322 70.8399 15.5892C70.8358 15.0819 70.7348 14.58 70.5424 14.1105C70.333 13.6415 70.036 13.2168 69.6674 12.8592C69.3364 12.4875 68.931 12.1893 68.4774 11.9843C68.0256 11.796 67.5405 11.7008 67.0511 11.7043C66.5417 11.6992 66.0363 11.7943 65.5636 11.9843L65.6161 11.9668ZM73.3336 15.6768V21.898H70.8486V20.7868C70.4363 21.1402 69.9769 21.4347 69.4836 21.6618C68.6347 22.0407 67.7085 22.2146 66.7799 22.1692C65.9593 22.1487 65.1507 21.9674 64.3999 21.6355C62.8938 20.9244 61.7078 19.6761 61.0749 18.1355C60.7672 17.3679 60.6127 16.5475 60.6199 15.7205C60.6103 14.8596 60.774 14.0056 61.1011 13.2092C61.4373 12.4122 61.928 11.6896 62.5449 11.083C63.1402 10.4447 63.8673 9.94349 64.6756 9.61411C65.4839 9.28474 66.3542 9.13508 67.2261 9.17552C68.0551 9.20409 68.8713 9.38812 69.6324 9.71802C70.392 10.0656 71.0757 10.5591 71.6448 11.1705C72.2283 11.7646 72.6865 12.4698 72.9924 13.2443C73.2875 14.0138 73.4216 14.8358 73.3861 15.6593L73.3336 15.6768ZM49.3236 13.5505C49.1945 13.7765 49.0862 14.0137 48.9999 14.2592H56.4199C56.3328 14.0239 56.2275 13.7957 56.1049 13.5768C55.8684 13.197 55.573 12.8574 55.2299 12.5705C54.8915 12.2877 54.5066 12.0656 54.0924 11.9143C53.6489 11.7702 53.1849 11.6992 52.7186 11.7043C52.2548 11.6927 51.7926 11.7639 51.3536 11.9143C50.9194 12.0609 50.516 12.2863 50.1636 12.5792C49.8308 12.8532 49.5467 13.1816 49.3236 13.5505ZM39.5936 14.2592H42.2186V21.8805H39.5936V14.2592H42.2186C42.2221 13.9329 42.2897 13.6105 42.4178 13.3103C42.5459 13.0101 42.7318 12.7381 42.965 12.5098C43.1982 12.2814 43.4741 12.1013 43.7769 11.9796C44.0797 11.8579 44.4036 11.797 44.7299 11.8005H45.3949V9.17552H44.7299C44.0585 9.17091 43.3928 9.29887 42.771 9.55207C42.1492 9.80527 41.5835 10.1787 41.1063 10.651C40.6291 11.1233 40.2499 11.6852 39.9903 12.3044C39.7307 12.9235 39.5959 13.5879 39.5936 14.2592ZM76.1074 5.50927H78.1286V21.8805H75.5999V5.48302L76.1074 5.50927ZM87.736 17.138C88.1061 18.0919 88.8171 18.8746 89.7311 19.3343C90.1967 19.5534 90.704 19.6697 91.2184 19.6755C91.74 19.7062 92.262 19.6257 92.7499 19.4392C93.2325 19.2455 93.6658 18.9466 94.0184 18.5643C94.3995 18.1846 94.698 17.7309 94.8969 17.2313C95.0952 16.7317 95.1897 16.1967 95.1735 15.6593C95.1621 15.1481 95.0554 14.6437 94.8584 14.1718C94.6472 13.7013 94.3506 13.2741 93.9838 12.9118C93.6516 12.5411 93.2463 12.2431 92.7935 12.0368C92.3479 11.8501 91.8681 11.7577 91.385 11.7655C90.8777 11.7535 90.3737 11.8489 89.9062 12.0455C89.435 12.2509 89.0097 12.5484 88.6548 12.9205C88.2836 13.2759 87.9861 13.7011 87.7801 14.1718C87.3981 15.1391 87.3824 16.2125 87.736 17.1905V17.138ZM97.2038 13.288C97.508 14.0597 97.6622 14.8823 97.6584 15.7118C97.6627 16.5645 97.4961 17.4094 97.1687 18.1968C96.8217 18.9923 96.3258 19.714 95.7074 20.323C95.1071 20.9391 94.3862 21.4247 93.5899 21.7492C92.7997 22.06 91.9531 22.2002 91.105 22.1605C90.2811 22.1505 89.4682 21.9719 88.716 21.6355C87.9619 21.2994 87.2832 20.8143 86.7211 20.2092C85.539 18.9786 84.8912 17.3305 84.9191 15.6243C84.947 13.918 85.6482 12.2919 86.8699 11.1005C87.4574 10.4604 88.1773 9.95635 88.9798 9.62382C89.7823 9.29129 90.648 9.13828 91.516 9.17552C92.3432 9.20284 93.1575 9.39004 93.9135 9.72677C94.6662 10.0728 95.342 10.5668 95.8996 11.1792C96.4762 11.7806 96.9309 12.4877 97.2384 13.2618L97.2038 13.288ZM81.0074 9.50802H83.0111V21.8805H80.4999V9.48177L81.0074 9.50802ZM81.0074 5.50927H83.0111V7.60052H80.4999V5.48302L81.0074 5.50927ZM54.8536 19.0718C55.2181 18.8417 55.5357 18.5448 55.7899 18.1968H58.6336C58.4313 18.7047 58.1637 19.1842 57.8374 19.623C57.4467 20.1579 56.9708 20.625 56.4286 21.0055C55.3589 21.765 54.083 22.1801 52.7711 22.1955C51.9501 22.209 51.1348 22.0572 50.3736 21.7492C49.5941 21.4234 48.8842 20.9511 48.2824 20.358C47.6631 19.7681 47.1639 19.0639 46.8124 18.2843C46.4734 17.5118 46.2977 16.6778 46.2961 15.8343C46.2606 14.9369 46.4156 14.0423 46.7511 13.2092C47.0926 12.3889 47.5989 11.6473 48.2386 11.0305C48.8684 10.3923 49.6217 9.88913 50.4524 9.55177C51.2893 9.23538 52.1848 9.10403 53.0774 9.16677C53.8779 9.21215 54.6621 9.41119 55.3874 9.75302C56.1277 10.112 56.7975 10.601 57.3648 11.1968C57.9161 11.7696 58.3606 12.4363 58.6774 13.1655C58.9742 13.8657 59.126 14.6188 59.1236 15.3792V16.7005H48.9386C49.003 17.0052 49.109 17.2997 49.2536 17.5755C49.4702 17.9968 49.7675 18.3714 50.1286 18.678C50.8642 19.3406 51.8251 19.6975 52.8149 19.6755C53.539 19.6785 54.2479 19.4686 54.8536 19.0718Z" fill="#9DA7B0"/>
</g>
<defs>
<clipPath id="clip0_0_3707">
<rect width="28" height="28" fill="white"/>
</clipPath>
<clipPath id="clip1_0_3707">
<rect width="58.3729" height="17.0847" fill="white" transform="translate(39.3899 5.45763)"/>
</clipPath>
</defs>
</svg>