<svg width="36" height="37" viewBox="0 0 36 37" fill="none" xmlns="http://www.w3.org/2000/svg">
<g filter="url(#filter0_dd_1147_5913)">
<rect x="2" y="1.5" width="32" height="32" rx="16" fill="white"/>
<path d="M14.3293 13.0039C14.1015 12.7761 13.7322 12.7761 13.5044 13.0039C13.2765 13.2317 13.2765 13.601 13.5044 13.8288L17.1752 17.4997L13.5044 21.1706C13.2765 21.3984 13.2765 21.7678 13.5044 21.9956C13.7322 22.2234 14.1015 22.2234 14.3293 21.9956L18.0002 18.3247L21.671 21.9955C21.8988 22.2233 22.2682 22.2233 22.496 21.9955C22.7238 21.7677 22.7238 21.3983 22.496 21.1705L18.8252 17.4997L22.496 13.8289C22.7238 13.6011 22.7238 13.2318 22.496 13.004C22.2682 12.7761 21.8988 12.7761 21.671 13.004L18.0002 16.6748L14.3293 13.0039Z" fill="#707D8A"/>
</g>
<defs>
<filter id="filter0_dd_1147_5913" x="0" y="0.5" width="36" height="36" filterUnits="userSpaceOnUse" color-interpolation-filters="sRGB">
<feFlood flood-opacity="0" result="BackgroundImageFix"/>
<feColorMatrix in="SourceAlpha" type="matrix" values="0 0 0 0 0 0 0 0 0 0 0 0 0 0 0 0 0 0 127 0" result="hardAlpha"/>
<feMorphology radius="1" operator="dilate" in="SourceAlpha" result="effect1_dropShadow_1147_5913"/>
<feOffset/>
<feComposite in2="hardAlpha" operator="out"/>
<feColorMatrix type="matrix" values="0 0 0 0 0.960784 0 0 0 0 0.972549 0 0 0 0 0.976471 0 0 0 1 0"/>
<feBlend mode="normal" in2="BackgroundImageFix" result="effect1_dropShadow_1147_5913"/>
<feColorMatrix in="SourceAlpha" type="matrix" values="0 0 0 0 0 0 0 0 0 0 0 0 0 0 0 0 0 0 127 0" result="hardAlpha"/>
<feOffset dy="1"/>
<feGaussianBlur stdDeviation="1"/>
<feComposite in2="hardAlpha" operator="out"/>
<feColorMatrix type="matrix" values="0 0 0 0 0.0431373 0 0 0 0 0.0980392 0 0 0 0 0.156863 0 0 0 0.08 0"/>
<feBlend mode="normal" in2="effect1_dropShadow_1147_5913" result="effect2_dropShadow_1147_5913"/>
<feBlend mode="normal" in="SourceGraphic" in2="effect2_dropShadow_1147_5913" result="shape"/>
</filter>
</defs>
</svg>
