<svg width="22" height="16" viewBox="0 0 22 16" fill="none" xmlns="http://www.w3.org/2000/svg">
<g clip-path="url(#clip0_0_4072)">
<path d="M18.3829 1.33997C16.9959 0.70497 15.5316 0.254475 14.0275 0C13.8217 0.367934 13.6355 0.746489 13.4696 1.13408C11.8675 0.892656 10.2382 0.892656 8.63608 1.13408C8.47013 0.746529 8.28391 0.367978 8.07817 0C6.57313 0.256624 5.10792 0.708188 3.71952 1.3433C0.963186 5.42134 0.215988 9.39809 0.589587 13.3184C2.20376 14.511 4.01049 15.418 5.93122 16C6.36372 15.4183 6.74642 14.8012 7.07527 14.1553C6.45066 13.922 5.84781 13.6342 5.27369 13.2951C5.42479 13.1856 5.57257 13.0726 5.71537 12.9631C7.38593 13.7487 9.20927 14.156 11.0553 14.156C12.9014 14.156 14.7248 13.7487 16.3953 12.9631C16.5398 13.0809 16.6876 13.1939 16.837 13.2951C16.2618 13.6347 15.6578 13.9231 15.0321 14.1569C15.3605 14.8026 15.7433 15.4192 16.1761 16C18.0985 15.4204 19.9066 14.5138 21.5211 13.32C21.9594 8.77377 20.7722 4.83354 18.3829 1.33997ZM7.54849 10.9074C6.5074 10.9074 5.64729 9.96264 5.64729 8.80033C5.64729 7.63802 6.47751 6.68493 7.54517 6.68493C8.61283 6.68493 9.4663 7.63802 9.44804 8.80033C9.42977 9.96264 8.60951 10.9074 7.54849 10.9074ZM14.5622 10.9074C13.5194 10.9074 12.6626 9.96264 12.6626 8.80033C12.6626 7.63802 13.4929 6.68493 14.5622 6.68493C15.6315 6.68493 16.4783 7.63802 16.4601 8.80033C16.4418 9.96264 15.6232 10.9074 14.5622 10.9074Z" fill="#0B1928"/>
</g>
<defs>
<clipPath id="clip0_0_4072">
<rect width="21.1108" height="16" fill="white" transform="translate(0.499939)"/>
</clipPath>
</defs>
</svg>