<svg width="385" height="243" viewBox="0 0 385 243" fill="none" xmlns="http://www.w3.org/2000/svg">
<g clip-path="url(#clip0_1_2851)">
<g filter="url(#filter0_dddd_1_2851)">
<path d="M174.476 87.2389L174.482 87.2388L189.373 87.0767H189.376H239.59C246.444 87.0767 252 92.6329 252 99.4869V160.589C252 167.443 246.444 173 239.59 173H145.411C138.557 173 133 167.443 133 160.589V99.6491C133 92.7951 138.557 87.2388 145.411 87.2388L174.476 87.2389Z" fill="white"/>
<path d="M174.476 87.2389L174.482 87.2388L189.373 87.0767H189.376H239.59C246.444 87.0767 252 92.6329 252 99.4869V160.589C252 167.443 246.444 173 239.59 173H145.411C138.557 173 133 167.443 133 160.589V99.6491C133 92.7951 138.557 87.2388 145.411 87.2388L174.476 87.2389Z" fill="url(#paint0_radial_1_2851)"/>
<path d="M174.476 87.2389L174.482 87.2388L189.373 87.0767H189.376H239.59C246.444 87.0767 252 92.6329 252 99.4869V160.589C252 167.443 246.444 173 239.59 173H145.411C138.557 173 133 167.443 133 160.589V99.6491C133 92.7951 138.557 87.2388 145.411 87.2388L174.476 87.2389Z" stroke="url(#paint1_linear_1_2851)"/>
<g filter="url(#filter1_i_1_2851)">
<path d="M132.5 95.1427C132.5 88.0126 138.28 82.2324 145.411 82.2324H169.683C172.776 82.2324 175.765 83.3423 178.108 85.3603L185.741 91.9339C188.084 93.9519 191.074 95.0618 194.166 95.0618H239.59C246.72 95.0618 252.5 100.842 252.5 107.972V160.589C252.5 167.719 246.72 173.5 239.59 173.5H145.411C138.28 173.5 132.5 167.719 132.5 160.589V95.1427Z" fill="white"/>
<path d="M132.5 95.1427C132.5 88.0126 138.28 82.2324 145.411 82.2324H169.683C172.776 82.2324 175.765 83.3423 178.108 85.3603L185.741 91.9339C188.084 93.9519 191.074 95.0618 194.166 95.0618H239.59C246.72 95.0618 252.5 100.842 252.5 107.972V160.589C252.5 167.719 246.72 173.5 239.59 173.5H145.411C138.28 173.5 132.5 167.719 132.5 160.589V95.1427Z" fill="url(#paint2_radial_1_2851)"/>
</g>
<path d="M133 95.1427C133 88.2887 138.557 82.7324 145.411 82.7324H169.683C172.656 82.7324 175.53 83.7994 177.782 85.7392L185.415 92.3128C187.849 94.4089 190.954 95.5618 194.166 95.5618H239.59C246.444 95.5618 252 101.118 252 107.972V160.589C252 167.443 246.444 173 239.59 173H145.411C138.557 173 133 167.443 133 160.589V95.1427Z" stroke="white"/>
<path d="M133 95.1427C133 88.2887 138.557 82.7324 145.411 82.7324H169.683C172.656 82.7324 175.53 83.7994 177.782 85.7392L185.415 92.3128C187.849 94.4089 190.954 95.5618 194.166 95.5618H239.59C246.444 95.5618 252 101.118 252 107.972V160.589C252 167.443 246.444 173 239.59 173H145.411C138.557 173 133 167.443 133 160.589V95.1427Z" stroke="white"/>
<path d="M133 95.1427C133 88.2887 138.557 82.7324 145.411 82.7324H169.683C172.656 82.7324 175.53 83.7994 177.782 85.7392L185.415 92.3128C187.849 94.4089 190.954 95.5618 194.166 95.5618H239.59C246.444 95.5618 252 101.118 252 107.972V160.589C252 167.443 246.444 173 239.59 173H145.411C138.557 173 133 167.443 133 160.589V95.1427Z" stroke="url(#paint3_linear_1_2851)"/>
<g clip-path="url(#clip1_1_2851)">
<path fill-rule="evenodd" clip-rule="evenodd" d="M192.453 117.941C183.598 117.941 176.44 125.152 176.44 134.073C176.44 141.204 181.026 147.241 187.389 149.377C188.185 149.538 188.476 149.03 188.476 148.603C188.476 148.229 188.45 146.947 188.45 145.611C183.995 146.573 183.068 143.688 183.068 143.688C182.352 141.819 181.291 141.338 181.291 141.338C179.833 140.35 181.397 140.35 181.397 140.35C183.015 140.457 183.863 142.006 183.863 142.006C185.295 144.463 187.601 143.769 188.529 143.341C188.662 142.3 189.086 141.578 189.537 141.178C185.984 140.804 182.246 139.415 182.246 133.218C182.246 131.456 182.882 130.013 183.889 128.892C183.73 128.491 183.174 126.835 184.049 124.618C184.049 124.618 185.401 124.191 188.449 126.274C189.755 125.921 191.101 125.741 192.453 125.74C193.805 125.74 195.183 125.927 196.456 126.274C199.505 124.191 200.857 124.618 200.857 124.618C201.732 126.835 201.175 128.491 201.016 128.892C202.05 130.013 202.66 131.456 202.66 133.218C202.66 139.415 198.922 140.777 195.343 141.178C195.926 141.685 196.43 142.647 196.43 144.169C196.43 146.333 196.403 148.069 196.403 148.603C196.403 149.03 196.695 149.538 197.49 149.378C203.853 147.24 208.44 141.204 208.44 134.073C208.466 125.152 201.281 117.941 192.453 117.941Z" fill="url(#paint4_linear_1_2851)"/>
</g>
</g>
<rect opacity="0.3" x="260.929" y="87.0771" width="119.809" height="85.686" rx="12.5" stroke="#DEE1E4"/>
<rect opacity="0.3" x="4.26099" y="87.0771" width="119.809" height="85.686" rx="12.5" stroke="#DEE1E4"/>
<rect opacity="0.3" x="-60.6169" y="-7.60938" width="119.809" height="85.686" rx="12.5" stroke="#DEE1E4"/>
<rect opacity="0.3" x="68.1917" y="-7.60938" width="119.809" height="85.686" rx="12.5" stroke="#DEE1E4"/>
<rect opacity="0.3" x="197" y="-7.60938" width="119.809" height="85.686" rx="12.5" stroke="#DEE1E4"/>
<rect opacity="0.3" x="325.809" y="-7.60938" width="119.809" height="85.686" rx="12.5" stroke="#DEE1E4"/>
<rect opacity="0.3" x="-60.6169" y="181.5" width="119.809" height="85.686" rx="12.5" stroke="#DEE1E4"/>
<rect opacity="0.3" x="68.1917" y="181.5" width="119.809" height="85.686" rx="12.5" stroke="#DEE1E4"/>
<rect opacity="0.3" x="197" y="181.5" width="119.809" height="85.686" rx="12.5" stroke="#DEE1E4"/>
<rect opacity="0.3" x="325.809" y="181.5" width="119.809" height="85.686" rx="12.5" stroke="#DEE1E4"/>
</g>
<defs>
<filter id="filter0_dddd_1_2851" x="122.414" y="81.2238" width="140.172" height="127.577" filterUnits="userSpaceOnUse" color-interpolation-filters="sRGB">
<feFlood flood-opacity="0" result="BackgroundImageFix"/>
<feColorMatrix in="SourceAlpha" type="matrix" values="0 0 0 0 0 0 0 0 0 0 0 0 0 0 0 0 0 0 127 0" result="hardAlpha"/>
<feOffset dy="2.01723"/>
<feGaussianBlur stdDeviation="1.51292"/>
<feColorMatrix type="matrix" values="0 0 0 0 0.0431373 0 0 0 0 0.0980392 0 0 0 0 0.156863 0 0 0 0.04 0"/>
<feBlend mode="normal" in2="BackgroundImageFix" result="effect1_dropShadow_1_2851"/>
<feColorMatrix in="SourceAlpha" type="matrix" values="0 0 0 0 0 0 0 0 0 0 0 0 0 0 0 0 0 0 127 0" result="hardAlpha"/>
<feOffset dy="6.0517"/>
<feGaussianBlur stdDeviation="3.02585"/>
<feColorMatrix type="matrix" values="0 0 0 0 0.0431373 0 0 0 0 0.0980392 0 0 0 0 0.156863 0 0 0 0.03 0"/>
<feBlend mode="normal" in2="effect1_dropShadow_1_2851" result="effect2_dropShadow_1_2851"/>
<feColorMatrix in="SourceAlpha" type="matrix" values="0 0 0 0 0 0 0 0 0 0 0 0 0 0 0 0 0 0 127 0" result="hardAlpha"/>
<feOffset dy="14.1206"/>
<feGaussianBlur stdDeviation="4.03446"/>
<feColorMatrix type="matrix" values="0 0 0 0 0.0431373 0 0 0 0 0.0980392 0 0 0 0 0.156863 0 0 0 0.02 0"/>
<feBlend mode="normal" in2="effect2_dropShadow_1_2851" result="effect3_dropShadow_1_2851"/>
<feColorMatrix in="SourceAlpha" type="matrix" values="0 0 0 0 0 0 0 0 0 0 0 0 0 0 0 0 0 0 127 0" result="hardAlpha"/>
<feOffset dy="25.2154"/>
<feGaussianBlur stdDeviation="5.04308"/>
<feColorMatrix type="matrix" values="0 0 0 0 0.0431373 0 0 0 0 0.0980392 0 0 0 0 0.156863 0 0 0 0.01 0"/>
<feBlend mode="normal" in2="effect3_dropShadow_1_2851" result="effect4_dropShadow_1_2851"/>
<feBlend mode="normal" in="SourceGraphic" in2="effect4_dropShadow_1_2851" result="shape"/>
</filter>
<filter id="filter1_i_1_2851" x="132.5" y="82.2324" width="120" height="91.2672" filterUnits="userSpaceOnUse" color-interpolation-filters="sRGB">
<feFlood flood-opacity="0" result="BackgroundImageFix"/>
<feBlend mode="normal" in="SourceGraphic" in2="BackgroundImageFix" result="shape"/>
<feColorMatrix in="SourceAlpha" type="matrix" values="0 0 0 0 0 0 0 0 0 0 0 0 0 0 0 0 0 0 127 0" result="hardAlpha"/>
<feMorphology radius="2.63671" operator="erode" in="SourceAlpha" result="effect1_innerShadow_1_2851"/>
<feOffset/>
<feGaussianBlur stdDeviation="2.26004"/>
<feComposite in2="hardAlpha" operator="arithmetic" k2="-1" k3="1"/>
<feColorMatrix type="matrix" values="0 0 0 0 0.0431373 0 0 0 0 0.0980392 0 0 0 0 0.156863 0 0 0 0.08 0"/>
<feBlend mode="normal" in2="shape" result="effect1_innerShadow_1_2851"/>
</filter>
<radialGradient id="paint0_radial_1_2851" cx="0" cy="0" r="1" gradientUnits="userSpaceOnUse" gradientTransform="translate(192.5 89.6651) rotate(90) scale(83.8342 115.952)">
<stop stop-color="#707D8A" stop-opacity="0.32"/>
<stop offset="1" stop-color="#707D8A" stop-opacity="0"/>
</radialGradient>
<linearGradient id="paint1_linear_1_2851" x1="158.218" y1="92.5256" x2="191.171" y2="179.702" gradientUnits="userSpaceOnUse">
<stop stop-color="white"/>
<stop offset="1" stop-color="#FAFAFA"/>
</linearGradient>
<radialGradient id="paint2_radial_1_2851" cx="0" cy="0" r="1" gradientUnits="userSpaceOnUse" gradientTransform="translate(192.5 85.3109) rotate(90) scale(88.1887 115.952)">
<stop stop-color="#707D8A" stop-opacity="0.04"/>
<stop offset="1" stop-color="#707D8A" stop-opacity="0.08"/>
</radialGradient>
<linearGradient id="paint3_linear_1_2851" x1="157.623" y1="83.8256" x2="208.69" y2="179.327" gradientUnits="userSpaceOnUse">
<stop stop-color="#3E6DD2"/>
<stop offset="0.236855" stop-color="#B666DB"/>
<stop offset="0.486855" stop-color="white"/>
</linearGradient>
<linearGradient id="paint4_linear_1_2851" x1="192.44" y1="117.941" x2="192.44" y2="149.408" gradientUnits="userSpaceOnUse">
<stop stop-color="#9DA7B0" stop-opacity="0.4"/>
<stop offset="1" stop-color="#9DA7B0" stop-opacity="0.8"/>
</linearGradient>
<clipPath id="clip0_1_2851">
<rect width="385" height="243" fill="white" transform="translate(0.000244141)"/>
</clipPath>
<clipPath id="clip1_1_2851">
<rect width="32" height="31.3469" fill="white" transform="translate(176.5 118)"/>
</clipPath>
</defs>
</svg>