<svg width="21" height="20" viewBox="0 0 21 20" fill="none" xmlns="http://www.w3.org/2000/svg">
<path fill-rule="evenodd" clip-rule="evenodd" d="M6.50041 5C6.50041 4.53976 6.8735 4.16667 7.33374 4.16667L15.6671 4.16667C15.8881 4.16667 16.1 4.25446 16.2563 4.41074C16.4126 4.56702 16.5004 4.77899 16.5004 5L16.5004 13.3333C16.5004 13.7936 16.1273 14.1667 15.6671 14.1667C15.2068 14.1667 14.8337 13.7936 14.8337 13.3333L14.8337 7.01184L6.25633 15.5893C5.93089 15.9147 5.40325 15.9147 5.07782 15.5893C4.75238 15.2638 4.75238 14.7362 5.07782 14.4107L13.6552 5.83333L7.33374 5.83333C6.8735 5.83333 6.50041 5.46024 6.50041 5Z" fill="#707D8A"/>
</svg>