<svg width="21" height="20" viewBox="0 0 21 20" fill="none" xmlns="http://www.w3.org/2000/svg">
<circle cx="10.5" cy="10" r="10" fill="url(#paint0_linear_351_8367)"/>
<path fill-rule="evenodd" clip-rule="evenodd" d="M13.7317 6H10.3337C10.1868 6 10.0661 6.12239 10.0661 6.27139V9.32823C10.0661 9.69007 9.74072 9.99867 9.36287 9.99867H6.77045C6.66026 9.99867 6.56579 10.0625 6.5212 10.1663C6.47921 10.27 6.50019 10.3844 6.57891 10.4643L9.98736 13.9202C10.0398 13.9734 10.1028 14 10.1763 14H13.3617C13.4719 14 13.5664 13.9362 13.6109 13.8324C13.6529 13.7286 13.632 13.6142 13.5532 13.5344L10.2078 10.145L10.1448 10.0811L10.0635 10.0013H10.0871C12.1494 9.98803 13.8497 8.35185 13.9993 6.29532C14.0045 6.21817 13.9809 6.14633 13.9284 6.09045C13.876 6.02927 13.8104 6 13.7317 6Z" fill="white"/>
<defs>
<linearGradient id="paint0_linear_351_8367" x1="2.6352" y1="2.18906" x2="19.2568" y2="18.8107" gradientUnits="userSpaceOnUse">
<stop/>
<stop offset="1" stop-color="#2D2D2D"/>
</linearGradient>
</defs>
</svg>
