<svg width="384" height="246" viewBox="0 0 384 246" fill="none" xmlns="http://www.w3.org/2000/svg">
<mask id="mask0_1_2876" style="mask-type:alpha" maskUnits="userSpaceOnUse" x="-1" y="0" width="385" height="246">
<rect x="-0.000488281" width="384" height="246" fill="url(#paint0_radial_1_2876)"/>
</mask>
<g mask="url(#mask0_1_2876)">
<rect x="-1.00049" y="160.728" width="385" height="1" fill="#DEE1E4"/>
<rect x="-1.00049" y="151.637" width="385" height="1" fill="#DEE1E4"/>
<rect x="-1.00049" y="133.455" width="385" height="1" fill="#DEE1E4"/>
<rect x="-1.00049" y="115.273" width="385" height="1" fill="#DEE1E4"/>
<rect x="-1.00049" y="97.0908" width="385" height="1" fill="#DEE1E4"/>
<rect x="-1.00049" y="78.9092" width="385" height="1" fill="#DEE1E4"/>
<rect x="223.817" y="309" width="385" height="1" transform="rotate(-90 223.817 309)" fill="#DEE1E4"/>
<rect x="-1.00049" y="142.546" width="385" height="1" fill="#DEE1E4"/>
<rect x="205.635" y="309" width="385" height="1" transform="rotate(-90 205.635 309)" fill="#DEE1E4"/>
<rect x="-1.00049" y="124.364" width="385" height="1" fill="#DEE1E4"/>
<rect x="187.454" y="309" width="385" height="1" transform="rotate(-90 187.454 309)" fill="#DEE1E4"/>
<rect x="-1.00049" y="106.182" width="385" height="1" fill="#DEE1E4"/>
<rect x="169.271" y="309" width="385" height="1" transform="rotate(-90 169.271 309)" fill="#DEE1E4"/>
<rect x="178.363" y="309" width="385" height="1" transform="rotate(-90 178.363 309)" fill="#DEE1E4"/>
<rect x="196.544" y="309" width="385" height="1" transform="rotate(-90 196.544 309)" fill="#DEE1E4"/>
<rect x="214.726" y="309" width="385" height="1" transform="rotate(-90 214.726 309)" fill="#DEE1E4"/>
<rect x="232.908" y="309" width="385" height="1" transform="rotate(-90 232.908 309)" fill="#DEE1E4"/>
<rect x="-1.00049" y="88" width="385" height="1" fill="#DEE1E4"/>
<rect x="151" y="309" width="385" height="1" transform="rotate(-90 151 309)" fill="#DEE1E4"/>
<rect x="160.18" y="309" width="385" height="1" transform="rotate(-90 160.18 309)" fill="#DEE1E4"/>
</g>
<path d="M150.454 72.8174L150.454 62.1361C150.454 61.5085 150.963 60.9997 151.591 60.9997C152.218 60.9997 152.727 61.5085 152.727 62.1361L152.727 72.8174L150.454 72.8174Z" fill="#DEE1E4"/>
<path d="M232.273 72.8174L232.273 62.1361C232.273 61.5085 232.782 60.9997 233.409 60.9997C234.037 60.9997 234.546 61.5085 234.546 62.1361L234.546 72.8174L232.273 72.8174Z" fill="#DEE1E4"/>
<path d="M241.65 78.2725H251.363C251.991 78.2725 252.5 78.7812 252.5 79.4088C252.5 80.0364 251.991 80.5452 251.363 80.5452H241.65V78.2725Z" fill="#DEE1E4"/>
<path d="M245.227 87.3636H251.363C251.991 87.3636 252.5 87.8724 252.5 88.5C252.5 89.1276 251.991 89.6364 251.363 89.6364H245.227V87.3636Z" fill="#DEE1E4"/>
<path d="M245.227 96.4546H251.363C251.991 96.4546 252.5 96.9633 252.5 97.5909C252.5 98.2185 251.991 98.7273 251.363 98.7273H245.227V96.4546Z" fill="#DEE1E4"/>
<path d="M245.227 105.545H251.363C251.991 105.545 252.5 106.054 252.5 106.682C252.5 107.309 251.991 107.818 251.363 107.818H245.227V105.545Z" fill="#DEE1E4"/>
<path d="M245.227 114.636H251.363C251.991 114.636 252.5 115.145 252.5 115.773C252.5 116.4 251.991 116.909 251.363 116.909H245.227V114.636Z" fill="#DEE1E4"/>
<path d="M245.227 123.727H251.363C251.991 123.727 252.5 124.236 252.5 124.864C252.5 125.491 251.991 126 251.363 126H245.227V123.727Z" fill="#DEE1E4"/>
<path d="M245.227 132.818H251.363C251.991 132.818 252.5 133.327 252.5 133.955C252.5 134.582 251.991 135.091 251.363 135.091H245.227V132.818Z" fill="#DEE1E4"/>
<path d="M245.227 141.909H251.363C251.991 141.909 252.5 142.418 252.5 143.045C252.5 143.673 251.991 144.182 251.363 144.182H245.227V141.909Z" fill="#DEE1E4"/>
<path d="M245.227 151H251.363C251.991 151 252.5 151.509 252.5 152.136C252.5 152.764 251.991 153.273 251.363 153.273H245.227V151Z" fill="#DEE1E4"/>
<path d="M243.634 160.091H251.363C251.991 160.091 252.5 160.6 252.5 161.227C252.5 161.855 251.991 162.364 251.363 162.364H243.634V160.091Z" fill="#DEE1E4"/>
<path d="M142.473 78.2725H133.636C133.009 78.2725 132.5 78.7812 132.5 79.4088C132.5 80.0364 133.009 80.5452 133.636 80.5452H142.473V78.2725Z" fill="#DEE1E4"/>
<path d="M139.772 87.3636H133.636C133.008 87.3636 132.499 87.8724 132.499 88.5C132.499 89.1276 133.008 89.6364 133.636 89.6364H139.772V87.3636Z" fill="#DEE1E4"/>
<path d="M139.772 96.4546H133.636C133.008 96.4546 132.499 96.9633 132.499 97.5909C132.499 98.2185 133.008 98.7273 133.636 98.7273H139.772V96.4546Z" fill="#DEE1E4"/>
<path d="M139.772 105.545H133.636C133.008 105.545 132.499 106.054 132.499 106.682C132.499 107.309 133.008 107.818 133.636 107.818H139.772V105.545Z" fill="#DEE1E4"/>
<path d="M139.772 114.636H133.636C133.008 114.636 132.499 115.145 132.499 115.773C132.499 116.4 133.008 116.909 133.636 116.909H139.772V114.636Z" fill="#DEE1E4"/>
<path d="M139.772 123.727H133.636C133.008 123.727 132.499 124.236 132.499 124.864C132.499 125.491 133.008 126 133.636 126H139.772V123.727Z" fill="#DEE1E4"/>
<path d="M139.772 132.818H133.636C133.008 132.818 132.499 133.327 132.499 133.955C132.499 134.582 133.008 135.091 133.636 135.091H139.772V132.818Z" fill="#DEE1E4"/>
<path d="M139.772 141.909H133.636C133.008 141.909 132.499 142.418 132.499 143.045C132.499 143.673 133.008 144.182 133.636 144.182H139.772V141.909Z" fill="#DEE1E4"/>
<path d="M139.772 151H133.636C133.008 151 132.499 151.509 132.499 152.136C132.499 152.764 133.008 153.273 133.636 153.273H139.772V151Z" fill="#DEE1E4"/>
<path d="M152.726 172.374L152.726 179.864C152.726 180.491 152.217 181 151.59 181C150.962 181 150.453 180.491 150.453 179.864L150.453 172.374L152.726 172.374Z" fill="#DEE1E4"/>
<path d="M234.545 172.604L234.545 179.864C234.545 180.491 234.036 181 233.408 181C232.781 181 232.272 180.491 232.272 179.864L232.272 172.604L234.545 172.604Z" fill="#DEE1E4"/>
<path d="M141.502 160.091H133.636C133.009 160.091 132.5 160.6 132.5 161.227C132.5 161.855 133.009 162.364 133.636 162.364H141.502V160.091Z" fill="#DEE1E4"/>
<g filter="url(#filter0_ddddi_1_2876)">
<rect x="139.772" y="68.2727" width="105.455" height="105.455" rx="16" fill="white"/>
<rect x="139.772" y="68.2727" width="105.455" height="105.455" rx="16" fill="url(#paint1_radial_1_2876)"/>
<rect x="140.394" y="68.8944" width="104.211" height="104.211" rx="15.3784" stroke="url(#paint2_linear_1_2876)" stroke-width="1.24326"/>
<path fill-rule="evenodd" clip-rule="evenodd" d="M210.428 100.545H192.82C192.059 100.545 191.433 101.171 191.433 101.933V117.565C191.433 119.415 189.747 120.993 187.79 120.993H174.356C173.785 120.993 173.296 121.32 173.064 121.85C172.847 122.381 172.956 122.966 173.364 123.374L191.025 141.046C191.297 141.318 191.624 141.454 192.004 141.454H208.511C209.082 141.454 209.571 141.128 209.802 140.597C210.02 140.067 209.911 139.482 209.503 139.073L192.168 121.741L191.841 121.415L191.42 121.007H191.542C202.229 120.939 211.04 112.572 211.815 102.055C211.842 101.661 211.719 101.293 211.447 101.008C211.176 100.695 210.836 100.545 210.428 100.545Z" fill="url(#paint3_linear_1_2876)"/>
</g>
<g opacity="0.8" filter="url(#filter1_ddddi_1_2876)">
<rect x="142.945" y="71.4451" width="99.1098" height="99.1098" rx="12.628" stroke="url(#paint4_linear_1_2876)" stroke-width="0.943903"/>
</g>
<path d="M225.454 173.727L225.454 179.864C225.454 180.491 224.945 181 224.317 181C223.69 181 223.181 180.491 223.181 179.864L223.181 173.727L225.454 173.727Z" fill="#DEE1E4"/>
<path d="M216.363 173.727L216.363 179.864C216.363 180.491 215.854 181 215.226 181C214.599 181 214.09 180.491 214.09 179.864L214.09 173.727L216.363 173.727Z" fill="#DEE1E4"/>
<path d="M207.272 173.727L207.272 179.864C207.272 180.491 206.763 181 206.135 181C205.508 181 204.999 180.491 204.999 179.864L204.999 173.727L207.272 173.727Z" fill="#DEE1E4"/>
<path d="M198.181 173.727L198.181 179.864C198.181 180.491 197.672 181 197.045 181C196.417 181 195.908 180.491 195.908 179.864L195.908 173.727L198.181 173.727Z" fill="#DEE1E4"/>
<path d="M189.09 173.727L189.09 179.864C189.09 180.491 188.582 181 187.954 181C187.326 181 186.818 180.491 186.818 179.864L186.818 173.727L189.09 173.727Z" fill="#DEE1E4"/>
<path d="M180 173.727L180 179.864C180 180.491 179.491 181 178.863 181C178.236 181 177.727 180.491 177.727 179.864L177.727 173.727L180 173.727Z" fill="#DEE1E4"/>
<path d="M170.908 173.727L170.908 179.864C170.908 180.491 170.399 181 169.771 181C169.144 181 168.635 180.491 168.635 179.864L168.635 173.727L170.908 173.727Z" fill="#DEE1E4"/>
<path d="M161.817 173.727L161.817 179.864C161.817 180.491 161.308 181 160.681 181C160.053 181 159.544 180.491 159.544 179.864L159.544 173.727L161.817 173.727Z" fill="#DEE1E4"/>
<path d="M159.545 68.2727L159.545 62.1363C159.545 61.5087 160.053 61 160.681 61C161.309 61 161.817 61.5087 161.817 62.1363L161.817 68.2727L159.545 68.2727Z" fill="#DEE1E4"/>
<path d="M168.636 68.2727L168.636 62.1364C168.636 61.5088 169.145 61 169.773 61C170.4 61 170.909 61.5088 170.909 62.1364L170.909 68.2727L168.636 68.2727Z" fill="#DEE1E4"/>
<path d="M177.727 68.2727L177.727 62.1364C177.727 61.5088 178.236 61 178.863 61C179.491 61 180 61.5088 180 62.1364L180 68.2727L177.727 68.2727Z" fill="#DEE1E4"/>
<path d="M186.818 68.2727L186.818 62.1364C186.818 61.5088 187.326 61 187.954 61C188.582 61 189.09 61.5088 189.09 62.1364L189.09 68.2727L186.818 68.2727Z" fill="#DEE1E4"/>
<path d="M195.909 68.2727L195.909 62.1363C195.909 61.5087 196.417 61 197.045 61C197.673 61 198.181 61.5087 198.181 62.1363L198.181 68.2727L195.909 68.2727Z" fill="#DEE1E4"/>
<path d="M205 68.2727L205 62.1363C205 61.5087 205.508 61 206.136 61C206.763 61 207.272 61.5087 207.272 62.1363L207.272 68.2727L205 68.2727Z" fill="#DEE1E4"/>
<path d="M214.09 68.2727L214.09 62.1364C214.09 61.5088 214.599 61 215.227 61C215.854 61 216.363 61.5088 216.363 62.1364L216.363 68.2727L214.09 68.2727Z" fill="#DEE1E4"/>
<path d="M223.181 68.2727L223.181 62.1364C223.181 61.5088 223.69 61 224.318 61C224.945 61 225.454 61.5088 225.454 62.1364L225.454 68.2727L223.181 68.2727Z" fill="#DEE1E4"/>
<defs>
<filter id="filter0_ddddi_1_2876" x="135.611" y="67.8566" width="113.777" height="120.435" filterUnits="userSpaceOnUse" color-interpolation-filters="sRGB">
<feFlood flood-opacity="0" result="BackgroundImageFix"/>
<feColorMatrix in="SourceAlpha" type="matrix" values="0 0 0 0 0 0 0 0 0 0 0 0 0 0 0 0 0 0 127 0" result="hardAlpha"/>
<feOffset dy="0.832266"/>
<feGaussianBlur stdDeviation="0.6242"/>
<feColorMatrix type="matrix" values="0 0 0 0 0.0431373 0 0 0 0 0.0980392 0 0 0 0 0.156863 0 0 0 0.04 0"/>
<feBlend mode="normal" in2="BackgroundImageFix" result="effect1_dropShadow_1_2876"/>
<feColorMatrix in="SourceAlpha" type="matrix" values="0 0 0 0 0 0 0 0 0 0 0 0 0 0 0 0 0 0 127 0" result="hardAlpha"/>
<feOffset dy="2.4968"/>
<feGaussianBlur stdDeviation="1.2484"/>
<feColorMatrix type="matrix" values="0 0 0 0 0.0431373 0 0 0 0 0.0980392 0 0 0 0 0.156863 0 0 0 0.03 0"/>
<feBlend mode="normal" in2="effect1_dropShadow_1_2876" result="effect2_dropShadow_1_2876"/>
<feColorMatrix in="SourceAlpha" type="matrix" values="0 0 0 0 0 0 0 0 0 0 0 0 0 0 0 0 0 0 127 0" result="hardAlpha"/>
<feOffset dy="5.82586"/>
<feGaussianBlur stdDeviation="1.66453"/>
<feColorMatrix type="matrix" values="0 0 0 0 0.0431373 0 0 0 0 0.0980392 0 0 0 0 0.156863 0 0 0 0.02 0"/>
<feBlend mode="normal" in2="effect2_dropShadow_1_2876" result="effect3_dropShadow_1_2876"/>
<feColorMatrix in="SourceAlpha" type="matrix" values="0 0 0 0 0 0 0 0 0 0 0 0 0 0 0 0 0 0 127 0" result="hardAlpha"/>
<feOffset dy="10.4033"/>
<feGaussianBlur stdDeviation="2.08067"/>
<feColorMatrix type="matrix" values="0 0 0 0 0.0431373 0 0 0 0 0.0980392 0 0 0 0 0.156863 0 0 0 0.01 0"/>
<feBlend mode="normal" in2="effect3_dropShadow_1_2876" result="effect4_dropShadow_1_2876"/>
<feBlend mode="normal" in="SourceGraphic" in2="effect4_dropShadow_1_2876" result="shape"/>
<feColorMatrix in="SourceAlpha" type="matrix" values="0 0 0 0 0 0 0 0 0 0 0 0 0 0 0 0 0 0 127 0" result="hardAlpha"/>
<feMorphology radius="1.08785" operator="erode" in="SourceAlpha" result="effect5_innerShadow_1_2876"/>
<feOffset/>
<feGaussianBlur stdDeviation="0.931818"/>
<feComposite in2="hardAlpha" operator="arithmetic" k2="-1" k3="1"/>
<feColorMatrix type="matrix" values="0 0 0 0 0.0431373 0 0 0 0 0.0980392 0 0 0 0 0.156863 0 0 0 0.28 0"/>
<feBlend mode="normal" in2="shape" result="effect5_innerShadow_1_2876"/>
</filter>
<filter id="filter1_ddddi_1_2876" x="138.545" y="70.5804" width="107.909" height="114.194" filterUnits="userSpaceOnUse" color-interpolation-filters="sRGB">
<feFlood flood-opacity="0" result="BackgroundImageFix"/>
<feColorMatrix in="SourceAlpha" type="matrix" values="0 0 0 0 0 0 0 0 0 0 0 0 0 0 0 0 0 0 127 0" result="hardAlpha"/>
<feOffset dy="0.785579"/>
<feGaussianBlur stdDeviation="0.589184"/>
<feColorMatrix type="matrix" values="0 0 0 0 0.0431373 0 0 0 0 0.0980392 0 0 0 0 0.156863 0 0 0 0.04 0"/>
<feBlend mode="normal" in2="BackgroundImageFix" result="effect1_dropShadow_1_2876"/>
<feColorMatrix in="SourceAlpha" type="matrix" values="0 0 0 0 0 0 0 0 0 0 0 0 0 0 0 0 0 0 127 0" result="hardAlpha"/>
<feOffset dy="2.35674"/>
<feGaussianBlur stdDeviation="1.17837"/>
<feColorMatrix type="matrix" values="0 0 0 0 0.0431373 0 0 0 0 0.0980392 0 0 0 0 0.156863 0 0 0 0.03 0"/>
<feBlend mode="normal" in2="effect1_dropShadow_1_2876" result="effect2_dropShadow_1_2876"/>
<feColorMatrix in="SourceAlpha" type="matrix" values="0 0 0 0 0 0 0 0 0 0 0 0 0 0 0 0 0 0 127 0" result="hardAlpha"/>
<feOffset dy="5.49905"/>
<feGaussianBlur stdDeviation="1.57116"/>
<feColorMatrix type="matrix" values="0 0 0 0 0.0431373 0 0 0 0 0.0980392 0 0 0 0 0.156863 0 0 0 0.02 0"/>
<feBlend mode="normal" in2="effect2_dropShadow_1_2876" result="effect3_dropShadow_1_2876"/>
<feColorMatrix in="SourceAlpha" type="matrix" values="0 0 0 0 0 0 0 0 0 0 0 0 0 0 0 0 0 0 127 0" result="hardAlpha"/>
<feOffset dy="9.81973"/>
<feGaussianBlur stdDeviation="1.96395"/>
<feColorMatrix type="matrix" values="0 0 0 0 0.0431373 0 0 0 0 0.0980392 0 0 0 0 0.156863 0 0 0 0.01 0"/>
<feBlend mode="normal" in2="effect3_dropShadow_1_2876" result="effect4_dropShadow_1_2876"/>
<feBlend mode="normal" in="SourceGraphic" in2="effect4_dropShadow_1_2876" result="shape"/>
<feColorMatrix in="SourceAlpha" type="matrix" values="0 0 0 0 0 0 0 0 0 0 0 0 0 0 0 0 0 0 127 0" result="hardAlpha"/>
<feMorphology radius="1.02683" operator="erode" in="SourceAlpha" result="effect5_innerShadow_1_2876"/>
<feOffset/>
<feGaussianBlur stdDeviation="0.879546"/>
<feComposite in2="hardAlpha" operator="arithmetic" k2="-1" k3="1"/>
<feColorMatrix type="matrix" values="0 0 0 0 0.0431373 0 0 0 0 0.0980392 0 0 0 0 0.156863 0 0 0 0.28 0"/>
<feBlend mode="normal" in2="shape" result="effect5_innerShadow_1_2876"/>
</filter>
<radialGradient id="paint0_radial_1_2876" cx="0" cy="0" r="1" gradientUnits="userSpaceOnUse" gradientTransform="translate(192 123) rotate(90) scale(123 192)">
<stop stop-color="#D9D9D9"/>
<stop offset="1" stop-color="#737373" stop-opacity="0"/>
</radialGradient>
<radialGradient id="paint1_radial_1_2876" cx="0" cy="0" r="1" gradientUnits="userSpaceOnUse" gradientTransform="translate(192.499 71.8297) rotate(76.0791) scale(110.831 110.214)">
<stop stop-color="#707D8A" stop-opacity="0"/>
<stop offset="1" stop-color="#707D8A" stop-opacity="0.06"/>
</radialGradient>
<linearGradient id="paint2_linear_1_2876" x1="162.372" y1="75.3065" x2="212.095" y2="170.411" gradientUnits="userSpaceOnUse">
<stop stop-color="white"/>
<stop offset="1" stop-color="white"/>
</linearGradient>
<linearGradient id="paint3_linear_1_2876" x1="192.386" y1="100.545" x2="192.386" y2="141.454" gradientUnits="userSpaceOnUse">
<stop stop-color="#DEE1E4"/>
<stop offset="1" stop-color="#DEE1E4" stop-opacity="0.4"/>
</linearGradient>
<linearGradient id="paint4_linear_1_2876" x1="142.473" y1="121" x2="242.527" y2="121" gradientUnits="userSpaceOnUse">
<stop stop-color="#3E6DD2"/>
<stop offset="1" stop-color="#B666DB"/>
</linearGradient>
</defs>
</svg>