<svg width="10" height="10" viewBox="0 0 10 10" fill="none" xmlns="http://www.w3.org/2000/svg">
<path d="M8.76447 0.555513H1.23558C1.15095 0.554337 1.06691 0.569845 0.988274 0.60115C0.909636 0.632455 0.837935 0.678944 0.777266 0.737962C0.716597 0.796981 0.668148 0.867372 0.634686 0.945117C0.601224 1.02286 0.583404 1.10644 0.582245 1.19107V8.80885C0.583404 8.89348 0.601224 8.97705 0.634686 9.0548C0.668148 9.13254 0.716597 9.20293 0.777266 9.26195C0.837935 9.32097 0.909636 9.36746 0.988274 9.39876C1.06691 9.43007 1.15095 9.44558 1.23558 9.4444H8.76447C8.8491 9.44558 8.93313 9.43007 9.01177 9.39876C9.09041 9.36746 9.16211 9.32097 9.22278 9.26195C9.28345 9.20293 9.3319 9.13254 9.36536 9.0548C9.39882 8.97705 9.41664 8.89348 9.4178 8.80885V1.19107C9.41664 1.10644 9.39882 1.02286 9.36536 0.945117C9.3319 0.867372 9.28345 0.796981 9.22278 0.737962C9.16211 0.678944 9.09041 0.632455 9.01177 0.60115C8.93313 0.569845 8.8491 0.554337 8.76447 0.555513ZM3.26224 7.99551H1.92891V3.99551H3.26224V7.99551ZM2.59558 3.43551C2.41169 3.43551 2.23534 3.36247 2.10532 3.23244C1.97529 3.10241 1.90225 2.92606 1.90225 2.74218C1.90225 2.5583 1.97529 2.38194 2.10532 2.25192C2.23534 2.12189 2.41169 2.04885 2.59558 2.04885C2.69322 2.03777 2.7921 2.04745 2.88575 2.07724C2.97939 2.10703 3.06568 2.15626 3.13898 2.22172C3.21228 2.28717 3.27092 2.36737 3.31108 2.45706C3.35123 2.54675 3.37199 2.64391 3.37199 2.74218C3.37199 2.84045 3.35123 2.93761 3.31108 3.0273C3.27092 3.11699 3.21228 3.19719 3.13898 3.26264C3.06568 3.32809 2.97939 3.37733 2.88575 3.40712C2.7921 3.43691 2.69322 3.44659 2.59558 3.43551ZM8.07113 7.99551H6.7378V5.84885C6.7378 5.31107 6.54669 4.95996 6.06224 4.95996C5.91232 4.96105 5.76633 5.00808 5.64395 5.0947C5.52157 5.18132 5.42868 5.30337 5.3778 5.4444C5.34302 5.54886 5.32795 5.65888 5.33336 5.76885V7.99107H4.00002C4.00002 7.99107 4.00002 4.35551 4.00002 3.99107H5.33336V4.55551C5.45448 4.34534 5.63065 4.17219 5.84289 4.05471C6.05512 3.93724 6.29539 3.87989 6.5378 3.88885C7.42669 3.88885 8.07113 4.46218 8.07113 5.69329V7.99551Z" fill="#0B1928"/>
</svg>
