<svg width="16" height="16" viewBox="0 0 16 16" fill="none" xmlns="http://www.w3.org/2000/svg">
<path d="M13.6464 1.32651H2.35305C2.2261 1.32475 2.10005 1.34801 1.98209 1.39497C1.86413 1.44192 1.75658 1.51166 1.66558 1.60018C1.57457 1.68871 1.5019 1.7943 1.45171 1.91092C1.40152 2.02753 1.37479 2.15289 1.37305 2.27984V13.7065C1.37479 13.8335 1.40152 13.9588 1.45171 14.0754C1.5019 14.1921 1.57457 14.2976 1.66558 14.3862C1.75658 14.4747 1.86413 14.5444 1.98209 14.5914C2.10005 14.6383 2.2261 14.6616 2.35305 14.6598H13.6464C13.7733 14.6616 13.8994 14.6383 14.0173 14.5914C14.1353 14.5444 14.2428 14.4747 14.3338 14.3862C14.4249 14.2976 14.4975 14.1921 14.5477 14.0754C14.5979 13.9588 14.6246 13.8335 14.6264 13.7065V2.27984C14.6246 2.15289 14.5979 2.02753 14.5477 1.91092C14.4975 1.7943 14.4249 1.68871 14.3338 1.60018C14.2428 1.51166 14.1353 1.44192 14.0173 1.39497C13.8994 1.34801 13.7733 1.32475 13.6464 1.32651V1.32651ZM5.39305 12.4865H3.39305V6.48651H5.39305V12.4865ZM4.39305 5.64651C4.11722 5.64651 3.85269 5.53694 3.65766 5.3419C3.46262 5.14686 3.35305 4.88233 3.35305 4.60651C3.35305 4.33068 3.46262 4.06616 3.65766 3.87112C3.85269 3.67608 4.11722 3.56651 4.39305 3.56651C4.53951 3.5499 4.68783 3.56441 4.8283 3.6091C4.96876 3.65378 5.09821 3.72764 5.20815 3.82582C5.3181 3.924 5.40606 4.04429 5.46629 4.17883C5.52652 4.31337 5.55766 4.45911 5.55766 4.60651C5.55766 4.75391 5.52652 4.89965 5.46629 5.03419C5.40606 5.16872 5.3181 5.28902 5.20815 5.3872C5.09821 5.48538 4.96876 5.55923 4.8283 5.60392C4.68783 5.64861 4.53951 5.66312 4.39305 5.64651V5.64651ZM12.6064 12.4865H10.6064V9.26651C10.6064 8.45984 10.3197 7.93318 9.59305 7.93318C9.36816 7.93482 9.14917 8.00536 8.9656 8.13529C8.78204 8.26522 8.6427 8.44829 8.56638 8.65984C8.51421 8.81654 8.4916 8.98156 8.49971 9.14651V12.4798H6.49971C6.49971 12.4798 6.49971 7.02651 6.49971 6.47984H8.49971V7.32651C8.6814 7.01125 8.94565 6.75152 9.26401 6.57531C9.58236 6.3991 9.94276 6.31308 10.3064 6.32651C11.6397 6.32651 12.6064 7.18651 12.6064 9.03318V12.4865Z" fill="white"/>
</svg>
