<svg width="25" height="24" viewBox="0 0 25 24" fill="none" xmlns="http://www.w3.org/2000/svg">
<path d="M12.5206 10.0068H12.4128C12.4305 10.007 12.4482 10.0071 12.4661 10.0071C12.4844 10.0072 12.5025 10.007 12.5206 10.0068Z" fill="#12131A"/>
<path d="M18.5036 10.0068C18.4911 10.007 18.4786 10.0071 18.4661 10.0071C18.4516 10.0071 18.4372 10.007 18.4229 10.0068H18.5036Z" fill="#12131A"/>
<path d="M19.7244 11.8233C20.078 11.7193 20.4661 11.9642 20.4661 12.3327V18.0068C20.4661 19.6637 19.1229 21.0068 17.4661 21.0068H15.6056C14.9763 21.0068 14.4661 20.4966 14.4661 19.8673V17.0068C14.4661 15.9023 13.5706 15.0068 12.4661 15.0068C11.3615 15.0068 10.4661 15.9023 10.4661 17.0068V19.8673C10.4661 20.4966 9.95588 21.0068 9.32653 21.0068H7.46606C5.80921 21.0068 4.46606 19.6637 4.46606 18.0068V12.3324C4.46606 11.9639 4.85415 11.719 5.20766 11.823C5.60621 11.9403 6.02795 12.0068 6.46606 12.0068C7.51445 12.0068 8.3807 11.6835 9.05985 11.2683C9.24044 11.1579 9.46895 11.1586 9.65013 11.2681C10.3802 11.7089 11.312 12.007 12.4658 12.0071C13.6198 12.0073 14.5519 11.7093 15.282 11.2683C15.4632 11.1589 15.6918 11.1582 15.8723 11.2686C16.5515 11.6838 17.4177 12.0071 18.4661 12.0071C18.9042 12.0071 19.3259 11.9406 19.7244 11.8233Z" fill="#12131A"/>
<path d="M7.46606 3.00715C8.46606 3.00597 16.4661 3.00855 17.4661 3.00808C19.4661 3.00715 21.4661 4.50715 21.4661 7.00715C21.4661 8.50715 19.9661 10.0071 18.4661 10.0071C16.4661 10.0071 15.4661 8.00715 15.4661 8.00715C15.4661 8.00715 14.9661 10.0075 12.4661 10.0071C9.96606 10.0068 9.46606 8.00715 9.46606 8.00715C9.46606 8.00715 8.46606 10.0068 6.46606 10.0068C4.96606 10.0068 3.46606 8.50715 3.46606 7.00715C3.46606 4.50715 5.46607 3.00951 7.46606 3.00715Z" fill="#12131A"/>
</svg>
