<svg width="386" height="243" viewBox="0 0 386 243" fill="none" xmlns="http://www.w3.org/2000/svg">
<g filter="url(#filter0_dddddi_1_2857)">
<path d="M262.833 122.328C262.833 160.988 231.493 192.328 192.833 192.328C154.174 192.328 122.833 160.988 122.833 122.328C122.833 83.6684 154.174 52.3284 192.833 52.3284C231.493 52.3284 262.833 83.6684 262.833 122.328Z" fill="white"/>
<path d="M262.833 122.328C262.833 160.988 231.493 192.328 192.833 192.328C154.174 192.328 122.833 160.988 122.833 122.328C122.833 83.6684 154.174 52.3284 192.833 52.3284C231.493 52.3284 262.833 83.6684 262.833 122.328Z" fill="url(#paint0_radial_1_2857)"/>
<path d="M262.733 122.328C262.733 160.933 231.438 192.227 192.833 192.227C154.229 192.227 122.934 160.933 122.934 122.328C122.934 83.7242 154.229 52.4293 192.833 52.4293C231.438 52.4293 262.733 83.7242 262.733 122.328Z" stroke="black" stroke-opacity="0.04" stroke-width="0.201925"/>
</g>
<circle cx="193.046" cy="122.542" r="51.63" stroke="#DEE1E4"/>
<circle cx="193.046" cy="122.542" r="51.63" stroke="url(#paint1_linear_1_2857)"/>
<path fill-rule="evenodd" clip-rule="evenodd" d="M206.045 107.718H193.408C192.862 107.718 192.413 108.173 192.413 108.727V120.095C192.413 121.44 191.203 122.588 189.798 122.588H180.158C179.748 122.588 179.397 122.825 179.231 123.211C179.075 123.597 179.153 124.023 179.445 124.319L192.12 137.171C192.316 137.369 192.55 137.468 192.823 137.468H204.669C205.079 137.468 205.43 137.23 205.596 136.845C205.752 136.459 205.674 136.033 205.381 135.736L192.94 123.132L192.706 122.895L192.403 122.598H192.491C200.161 122.548 206.484 116.464 207.04 108.816C207.059 108.529 206.972 108.262 206.776 108.054C206.581 107.827 206.337 107.718 206.045 107.718Z" fill="url(#paint2_linear_1_2857)"/>
<g filter="url(#filter1_i_1_2857)">
<path fill-rule="evenodd" clip-rule="evenodd" d="M192.987 179.37C224.406 179.37 249.875 153.9 249.875 122.482C249.875 91.0637 224.406 65.5941 192.987 65.5941C161.569 65.5941 136.1 91.0637 136.1 122.482C136.1 153.9 161.569 179.37 192.987 179.37ZM192.987 188.69C229.553 188.69 259.196 159.048 259.196 122.482C259.196 85.9161 229.553 56.2736 192.987 56.2736C156.422 56.2736 126.779 85.9161 126.779 122.482C126.779 159.048 156.422 188.69 192.987 188.69Z" fill="#F5F8F9"/>
</g>
<path d="M249.78 122.482C249.78 153.848 224.353 179.275 192.987 179.275C161.622 179.275 136.195 153.848 136.195 122.482C136.195 91.1161 161.622 65.6891 192.987 65.6891C224.353 65.6891 249.78 91.1161 249.78 122.482ZM192.987 188.785C229.606 188.785 259.291 159.1 259.291 122.482C259.291 85.8636 229.606 56.1786 192.987 56.1786C156.369 56.1786 126.684 85.8636 126.684 122.482C126.684 159.1 156.369 188.785 192.987 188.785Z" stroke="black" stroke-opacity="0.03" stroke-width="0.190043"/>
<path d="M195.199 63.3669C194.634 63.3381 194.215 63.1557 193.941 62.8196C193.667 62.4835 193.545 62.0155 193.575 61.4155L193.696 59.0406L194.451 59.079L194.325 61.5642C194.305 61.9475 194.376 62.2383 194.536 62.4366C194.697 62.6311 194.931 62.7361 195.236 62.7517C195.542 62.7673 195.785 62.6865 195.965 62.5093C196.145 62.3283 196.244 62.0481 196.264 61.6688L196.391 59.1778L197.145 59.2162L197.024 61.5969C196.994 62.193 196.823 62.6443 196.513 62.9506C196.206 63.2571 195.768 63.3959 195.199 63.3669Z" fill="#9DA7B0"/>
<path d="M199.522 63.5842L200.141 59.444L201.998 59.7217C202.301 59.7669 202.552 59.8574 202.751 59.993C202.954 60.1291 203.099 60.2997 203.186 60.5048C203.277 60.7104 203.303 60.9416 203.264 61.1985C203.227 61.4515 203.134 61.6649 202.986 61.8388C202.839 62.0127 202.65 62.1373 202.419 62.2126C202.189 62.284 201.922 62.297 201.62 62.2518L200.343 62.0609L200.431 61.4744L201.673 61.6601C201.911 61.6956 202.102 61.6615 202.247 61.5577C202.395 61.4546 202.485 61.2975 202.517 61.0867C202.548 60.8797 202.507 60.707 202.394 60.5687C202.286 60.431 202.113 60.3443 201.875 60.3088L200.8 60.148L200.269 63.6959L199.522 63.5842Z" fill="#9DA7B0"/>
<path d="M207.847 65.1476L208.797 61.6883L207.457 61.3202L207.616 60.7428L211.024 61.6791L210.866 62.2566L209.526 61.8885L208.576 65.3478L207.847 65.1476Z" fill="#9DA7B0"/>
<path d="M213.359 66.9288C213.077 66.8203 212.835 66.6712 212.634 66.4816C212.433 66.2921 212.279 66.0728 212.171 65.8237C212.067 65.576 212.013 65.3103 212.01 65.0267C212.012 64.7409 212.07 64.4497 212.184 64.1531C212.336 63.7587 212.552 63.4453 212.833 63.2127C213.115 62.9764 213.434 62.8315 213.791 62.7779C214.153 62.722 214.522 62.7664 214.899 62.9112C215.282 63.0588 215.588 63.2739 215.815 63.5567C216.048 63.8373 216.189 64.1597 216.24 64.524C216.291 64.8883 216.241 65.2676 216.089 65.6619C215.975 65.9586 215.822 66.2111 215.63 66.4195C215.441 66.6293 215.223 66.7905 214.976 66.9032C214.733 67.0173 214.473 67.0772 214.197 67.083C213.921 67.0888 213.641 67.0374 213.359 66.9288ZM213.575 66.3515C213.821 66.4462 214.06 66.4675 214.292 66.4155C214.527 66.3649 214.739 66.2513 214.927 66.0746C215.117 65.8943 215.267 65.6612 215.377 65.3754C215.486 65.0933 215.528 64.8271 215.504 64.5769C215.484 64.3245 215.403 64.1042 215.26 63.916C215.121 63.7257 214.927 63.5824 214.677 63.4864C214.431 63.3917 214.191 63.3679 213.957 63.4149C213.728 63.4597 213.523 63.5675 213.341 63.7383C213.159 63.9092 213.013 64.1375 212.903 64.4233C212.791 64.7127 212.745 64.9854 212.762 65.2414C212.784 65.4989 212.863 65.7246 213 65.9186C213.141 66.114 213.333 66.2583 213.575 66.3515Z" fill="#9DA7B0"/>
<path d="M219.734 69.6423C220.098 69.0856 220.544 68.5944 221.071 68.1689C221.598 67.7433 222.193 67.3847 222.855 67.0931L222.802 67.2165L220.762 66.1233L221.045 65.5954L223.689 67.0127L223.434 67.4893C222.998 67.7128 222.597 67.9512 222.233 68.2044C221.874 68.4561 221.546 68.7312 221.25 69.0298C220.957 69.3302 220.694 69.6644 220.462 70.0324L219.734 69.6423Z" fill="#9DA7B0"/>
<path d="M223.35 71.5834L228.232 69.8006L228.741 70.1384L223.858 71.9211L223.35 71.5834ZM225.783 73.2691C225.647 73.179 225.541 73.062 225.464 72.9181C225.388 72.7741 225.356 72.6113 225.37 72.4296C225.384 72.2479 225.458 72.0553 225.593 71.8519C225.728 71.6484 225.874 71.5057 226.031 71.4237C226.193 71.3407 226.355 71.3065 226.518 71.3213C226.68 71.336 226.831 71.3895 226.969 71.4817C227.115 71.5782 227.226 71.6984 227.302 71.8423C227.382 71.9884 227.413 72.1512 227.397 72.3308C227.382 72.5071 227.307 72.697 227.172 72.9005C227.037 73.1039 226.888 73.2472 226.726 73.3302C226.564 73.4133 226.4 73.4464 226.234 73.4295C226.072 73.4147 225.922 73.3613 225.783 73.2691ZM226.027 72.9009C226.137 72.9738 226.259 72.9897 226.393 72.9486C226.528 72.9075 226.653 72.7998 226.768 72.6254C226.88 72.4575 226.927 72.3053 226.911 72.1688C226.9 72.0312 226.838 71.9249 226.725 71.8498C226.612 71.7748 226.49 71.7589 226.359 71.8021C226.233 71.8443 226.115 71.9493 226.003 72.1172C225.887 72.2916 225.833 72.4465 225.841 72.582C225.852 72.7196 225.914 72.8259 226.027 72.9009ZM225.087 70.2176C224.948 70.1254 224.84 70.0073 224.764 69.8634C224.687 69.7194 224.656 69.5566 224.669 69.3749C224.686 69.1953 224.762 69.0038 224.897 68.8004C225.032 68.5969 225.178 68.4542 225.335 68.3722C225.497 68.2892 225.659 68.255 225.822 68.2698C225.984 68.2845 226.135 68.338 226.274 68.4302C226.419 68.5267 226.53 68.6469 226.606 68.7908C226.683 68.9348 226.713 69.0965 226.696 69.2761C226.681 69.4524 226.606 69.6423 226.471 69.8458C226.336 70.0492 226.188 70.1925 226.025 70.2755C225.863 70.3586 225.701 70.3928 225.539 70.378C225.376 70.3633 225.226 70.3098 225.087 70.2176ZM225.331 69.8494C225.441 69.9223 225.563 69.9382 225.697 69.8972C225.832 69.8561 225.957 69.7483 226.073 69.5739C226.184 69.406 226.232 69.2538 226.215 69.1173C226.204 68.9797 226.142 68.8734 226.029 68.7983C225.916 68.7233 225.795 68.7058 225.666 68.7458C225.541 68.7879 225.421 68.8946 225.307 69.0657C225.192 69.2401 225.138 69.395 225.145 69.5305C225.156 69.6681 225.218 69.7744 225.331 69.8494Z" fill="#9DA7B0"/>
<path d="M229.987 76.1986L233.912 74.081L234.4 74.5122L230.544 76.6913L229.987 76.1986ZM232.353 78.2888L234.043 74.1965L234.557 74.6508L232.937 78.8047L232.353 78.2888ZM231.673 75.4927L233.39 77.0094L232.989 77.4626L231.273 75.9459L231.673 75.4927Z" fill="#9DA7B0"/>
<path d="M234.689 80.4407L237.749 77.584L239.03 78.9569C239.239 79.1807 239.379 79.4077 239.451 79.6378C239.525 79.8708 239.533 80.0945 239.473 80.3092C239.416 80.5266 239.293 80.724 239.103 80.9012C238.916 81.0758 238.711 81.1853 238.487 81.2297C238.263 81.2741 238.038 81.254 237.81 81.1694C237.586 81.0821 237.369 80.9265 237.16 80.7027L236.279 79.7591L236.713 79.3544L237.57 80.2725C237.734 80.4481 237.905 80.5404 238.083 80.5493C238.263 80.561 238.431 80.4941 238.587 80.3486C238.74 80.2058 238.816 80.0452 238.814 79.8668C238.814 79.6913 238.733 79.5157 238.569 79.3401L237.827 78.5452L235.205 80.9933L234.689 80.4407Z" fill="#9DA7B0"/>
<path d="M239.077 85.3679L240.471 84.2902L241.429 81.565L241.987 82.2872L241.072 84.6116L240.823 84.2896L243.299 83.9844L243.811 84.6468L240.933 84.8881L239.54 85.9659L239.077 85.3679Z" fill="#9DA7B0"/>
<path d="M243.928 89.0445L244.632 88.5909L245.089 89.2996L244.385 89.7531L243.928 89.0445Z" fill="#9DA7B0"/>
<path d="M244.863 94.1622C244.6 93.6612 244.543 93.2072 244.692 92.8002C244.842 92.3932 245.182 92.0499 245.714 91.7703L247.819 90.6639L248.171 91.3329L245.968 92.4908C245.628 92.6694 245.414 92.8783 245.325 93.1177C245.24 93.3552 245.269 93.6095 245.411 93.8806C245.554 94.1516 245.747 94.3193 245.991 94.3837C246.238 94.4463 246.53 94.3893 246.866 94.2125L249.074 93.0519L249.426 93.721L247.316 94.8302C246.787 95.1079 246.312 95.1913 245.89 95.0802C245.47 94.9726 245.128 94.6666 244.863 94.1622Z" fill="#9DA7B0"/>
<path d="M246.883 98.0051L250.762 96.4315L251.468 98.1717C251.583 98.4555 251.632 98.7176 251.617 98.9581C251.603 99.2022 251.53 99.4138 251.398 99.593C251.267 99.7757 251.081 99.9159 250.84 100.014C250.603 100.11 250.373 100.139 250.148 100.1C249.923 100.062 249.72 99.9621 249.537 99.8018C249.359 99.64 249.212 99.4172 249.097 99.1334L248.612 97.9373L249.161 97.7144L249.633 98.8782C249.724 99.1009 249.85 99.2482 250.013 99.3201C250.178 99.3956 250.359 99.3932 250.556 99.3131C250.75 99.2344 250.878 99.1114 250.94 98.9441C251.003 98.7804 250.99 98.5872 250.9 98.3645L250.491 97.357L247.167 98.7055L246.883 98.0051Z" fill="#9DA7B0"/>
<path d="M249.769 105.958L253.23 105.017L252.866 103.676L253.443 103.519L254.371 106.93L253.793 107.087L253.428 105.746L249.967 106.688L249.769 105.958Z" fill="#9DA7B0"/>
<path d="M251.041 111.625C250.991 111.327 250.996 111.043 251.057 110.774C251.118 110.504 251.228 110.26 251.388 110.04C251.548 109.825 251.75 109.643 251.992 109.497C252.239 109.353 252.52 109.255 252.833 109.202C253.25 109.132 253.63 109.159 253.973 109.282C254.319 109.405 254.607 109.606 254.834 109.886C255.067 110.169 255.216 110.51 255.283 110.907C255.351 111.313 255.321 111.685 255.193 112.025C255.07 112.368 254.865 112.654 254.577 112.883C254.289 113.112 253.937 113.262 253.52 113.332C253.207 113.384 252.911 113.381 252.634 113.321C252.358 113.265 252.108 113.16 251.885 113.005C251.664 112.853 251.48 112.66 251.334 112.425C251.189 112.19 251.091 111.924 251.041 111.625ZM251.648 111.518C251.691 111.778 251.794 111.994 251.957 112.167C252.12 112.344 252.326 112.469 252.574 112.541C252.826 112.613 253.103 112.623 253.405 112.573C253.703 112.523 253.953 112.424 254.157 112.276C254.364 112.131 254.512 111.949 254.601 111.729C254.695 111.513 254.719 111.273 254.675 111.009C254.632 110.749 254.53 110.531 254.37 110.353C254.215 110.179 254.018 110.057 253.778 109.987C253.539 109.917 253.268 109.907 252.966 109.958C252.66 110.009 252.401 110.108 252.19 110.253C251.979 110.403 251.825 110.586 251.728 110.803C251.631 111.023 251.605 111.262 251.648 111.518Z" fill="#9DA7B0"/>
<path d="M251.952 118.484C252.616 118.513 253.266 118.647 253.901 118.883C254.536 119.12 255.147 119.449 255.735 119.869L255.602 119.887L255.503 117.575L256.102 117.549L256.23 120.547L255.69 120.57C255.275 120.308 254.866 120.085 254.462 119.901C254.063 119.72 253.659 119.578 253.251 119.476C252.843 119.377 252.422 119.321 251.987 119.309L251.952 118.484Z" fill="#9DA7B0"/>
<path d="M252.125 122.681L256.147 125.974L256.116 126.583L252.093 123.291L252.125 122.681ZM251.915 125.633C251.923 125.471 251.97 125.32 252.054 125.181C252.139 125.041 252.263 124.931 252.426 124.85C252.59 124.77 252.793 124.735 253.037 124.748C253.281 124.761 253.478 124.813 253.629 124.907C253.783 125.004 253.895 125.126 253.965 125.273C254.035 125.42 254.066 125.577 254.057 125.744C254.048 125.918 254.001 126.075 253.917 126.214C253.832 126.357 253.708 126.467 253.544 126.544C253.385 126.621 253.184 126.653 252.94 126.641C252.696 126.628 252.497 126.573 252.343 126.476C252.189 126.379 252.077 126.255 252.007 126.104C251.937 125.957 251.906 125.8 251.915 125.633ZM252.356 125.656C252.349 125.788 252.398 125.901 252.501 125.995C252.605 126.09 252.762 126.143 252.971 126.153C253.172 126.164 253.327 126.127 253.436 126.044C253.549 125.964 253.609 125.856 253.616 125.721C253.623 125.585 253.574 125.472 253.47 125.382C253.37 125.295 253.219 125.246 253.018 125.236C252.809 125.225 252.648 125.258 252.536 125.334C252.423 125.413 252.363 125.521 252.356 125.656ZM254.185 123.48C254.194 123.313 254.241 123.16 254.325 123.021C254.41 122.882 254.534 122.772 254.697 122.691C254.861 122.614 255.064 122.582 255.308 122.594C255.552 122.607 255.749 122.66 255.899 122.753C256.054 122.85 256.166 122.972 256.236 123.12C256.306 123.267 256.336 123.424 256.328 123.59C256.319 123.764 256.272 123.921 256.187 124.06C256.102 124.199 255.979 124.308 255.815 124.385C255.656 124.462 255.455 124.494 255.211 124.482C254.967 124.469 254.768 124.414 254.614 124.317C254.46 124.22 254.348 124.097 254.278 123.95C254.208 123.803 254.177 123.646 254.185 123.48ZM254.627 123.502C254.62 123.634 254.668 123.747 254.772 123.842C254.876 123.936 255.032 123.989 255.241 124C255.443 124.01 255.598 123.974 255.707 123.89C255.82 123.81 255.88 123.703 255.887 123.567C255.894 123.432 255.847 123.319 255.747 123.228C255.647 123.142 255.494 123.093 255.289 123.082C255.08 123.072 254.919 123.104 254.806 123.18C254.693 123.259 254.634 123.367 254.627 123.502Z" fill="#9DA7B0"/>
<path d="M251.54 130.713L255.363 133.011L255.241 133.65L251.401 131.444L251.54 130.713ZM250.949 133.814L255.331 133.182L255.202 133.856L250.803 134.579L250.949 133.814ZM253.007 131.803L252.578 134.054L251.984 133.94L252.413 131.69L253.007 131.803Z" fill="#9DA7B0"/>
<path d="M250.283 136.95L254.298 138.133L253.768 139.934C253.681 140.228 253.557 140.464 253.395 140.643C253.233 140.825 253.044 140.945 252.829 141.003C252.613 141.065 252.38 141.059 252.131 140.985C251.885 140.913 251.687 140.792 251.535 140.622C251.383 140.452 251.285 140.247 251.243 140.008C251.204 139.771 251.227 139.505 251.314 139.211L251.679 137.973L252.247 138.141L251.893 139.345C251.825 139.576 251.832 139.77 251.915 139.928C251.997 140.089 252.14 140.2 252.344 140.26C252.545 140.319 252.722 140.303 252.874 140.21C253.026 140.122 253.135 139.962 253.203 139.731L253.51 138.688L250.069 137.675L250.283 136.95Z" fill="#9DA7B0"/>
<path d="M248.278 143.221L249.914 143.875L252.748 143.317L252.409 144.164L249.942 144.556L250.093 144.178L251.613 146.157L251.302 146.934L249.634 144.577L247.998 143.923L248.278 143.221Z" fill="#9DA7B0"/>
<path d="M247.567 149.273L248.315 149.65L247.935 150.403L247.188 150.026L247.567 149.273Z" fill="#9DA7B0"/>
<path d="M243.625 152.68C243.923 152.199 244.286 151.92 244.712 151.842C245.139 151.765 245.607 151.885 246.118 152.202L248.138 153.456L247.74 154.098L245.625 152.785C245.299 152.583 245.011 152.504 244.759 152.549C244.511 152.596 244.307 152.749 244.145 153.01C243.984 153.27 243.937 153.521 244.005 153.764C244.077 154.01 244.274 154.232 244.597 154.433L246.716 155.748L246.317 156.39L244.292 155.133C243.785 154.818 243.472 154.451 243.354 154.031C243.234 153.614 243.324 153.164 243.625 152.68Z" fill="#9DA7B0"/>
<path d="M241.345 156.353L244.67 158.896L243.529 160.388C243.343 160.631 243.143 160.807 242.928 160.916C242.71 161.028 242.491 161.072 242.269 161.049C242.045 161.029 241.83 160.94 241.624 160.783C241.421 160.627 241.279 160.443 241.198 160.23C241.117 160.016 241.1 159.791 241.145 159.552C241.194 159.316 241.311 159.077 241.497 158.833L242.282 157.808L242.753 158.169L241.99 159.166C241.844 159.357 241.781 159.541 241.802 159.718C241.82 159.898 241.914 160.053 242.083 160.182C242.25 160.309 242.42 160.357 242.596 160.326C242.769 160.297 242.929 160.187 243.075 159.996L243.735 159.133L240.886 156.953L241.345 156.353Z" fill="#9DA7B0"/>
<path d="M235.951 162.889L238.522 165.391L239.491 164.395L239.92 164.812L237.455 167.346L237.026 166.929L237.995 165.933L235.424 163.431L235.951 162.889Z" fill="#9DA7B0"/>
<path d="M231.727 166.868C231.958 166.673 232.205 166.533 232.468 166.447C232.731 166.362 232.998 166.333 233.268 166.358C233.535 166.386 233.794 166.467 234.044 166.601C234.293 166.74 234.52 166.931 234.725 167.174C234.998 167.497 235.169 167.837 235.237 168.195C235.309 168.556 235.282 168.906 235.157 169.245C235.032 169.589 234.815 169.891 234.507 170.151C234.193 170.417 233.858 170.581 233.5 170.644C233.143 170.713 232.792 170.682 232.448 170.551C232.104 170.42 231.796 170.194 231.523 169.871C231.318 169.628 231.171 169.372 231.081 169.103C230.988 168.837 230.951 168.568 230.971 168.298C230.988 168.029 231.061 167.773 231.189 167.528C231.317 167.283 231.496 167.063 231.727 166.868ZM232.129 167.335C231.928 167.505 231.794 167.704 231.728 167.932C231.659 168.163 231.657 168.404 231.721 168.654C231.788 168.907 231.92 169.151 232.117 169.385C232.312 169.616 232.525 169.781 232.756 169.88C232.987 169.985 233.219 170.019 233.453 169.984C233.686 169.954 233.905 169.853 234.11 169.681C234.311 169.51 234.448 169.312 234.519 169.084C234.59 168.861 234.594 168.629 234.532 168.388C234.47 168.146 234.34 167.908 234.143 167.674C233.943 167.437 233.726 167.265 233.493 167.157C233.257 167.052 233.021 167.013 232.785 167.039C232.546 167.069 232.328 167.167 232.129 167.335Z" fill="#9DA7B0"/>
<path d="M226.29 171.152C226.603 171.739 226.82 172.366 226.94 173.033C227.059 173.699 227.088 174.393 227.026 175.114L226.943 175.008L228.882 173.745L229.209 174.246L226.695 175.885L226.4 175.432C226.414 174.942 226.397 174.476 226.35 174.035C226.302 173.599 226.218 173.179 226.099 172.776C225.976 172.374 225.809 171.983 225.598 171.603L226.29 171.152Z" fill="#9DA7B0"/>
<path d="M222.846 173.391L222.063 178.53L221.522 178.814L222.305 173.675L222.846 173.391ZM220.199 174.715C220.343 174.64 220.496 174.603 220.659 174.605C220.822 174.607 220.98 174.658 221.133 174.757C221.286 174.856 221.419 175.014 221.532 175.23C221.646 175.446 221.701 175.643 221.697 175.82C221.692 176.002 221.644 176.161 221.553 176.296C221.462 176.431 221.343 176.538 221.196 176.615C221.041 176.696 220.882 176.736 220.719 176.734C220.553 176.734 220.395 176.683 220.246 176.582C220.098 176.484 219.968 176.327 219.854 176.111C219.741 175.895 219.687 175.696 219.692 175.513C219.697 175.331 219.746 175.172 219.841 175.035C219.932 174.899 220.051 174.793 220.199 174.715ZM220.404 175.107C220.287 175.168 220.215 175.267 220.186 175.405C220.158 175.542 220.192 175.704 220.289 175.889C220.383 176.068 220.494 176.183 220.621 176.234C220.747 176.29 220.87 176.287 220.99 176.224C221.11 176.161 221.183 176.061 221.208 175.926C221.231 175.795 221.196 175.641 221.103 175.462C221.005 175.277 220.896 175.155 220.773 175.097C220.647 175.04 220.524 175.044 220.404 175.107ZM223.209 175.571C223.356 175.494 223.512 175.456 223.675 175.458C223.838 175.46 223.995 175.511 224.148 175.61C224.298 175.711 224.429 175.87 224.542 176.086C224.656 176.302 224.711 176.499 224.707 176.676C224.702 176.858 224.654 177.017 224.563 177.152C224.472 177.287 224.353 177.394 224.206 177.471C224.051 177.552 223.892 177.592 223.729 177.59C223.566 177.588 223.41 177.536 223.261 177.435C223.113 177.338 222.983 177.181 222.869 176.964C222.756 176.748 222.702 176.549 222.707 176.367C222.712 176.185 222.76 176.026 222.851 175.891C222.942 175.755 223.061 175.649 223.209 175.571ZM223.414 175.963C223.297 176.024 223.225 176.123 223.196 176.261C223.168 176.398 223.202 176.56 223.299 176.745C223.393 176.924 223.504 177.039 223.631 177.09C223.757 177.146 223.88 177.143 224 177.08C224.12 177.017 224.194 176.919 224.221 176.787C224.244 176.656 224.208 176.5 224.113 176.318C224.015 176.133 223.906 176.011 223.783 175.953C223.657 175.896 223.534 175.9 223.414 175.963Z" fill="#9DA7B0"/>
<path d="M215.613 176.99L215.578 181.451L214.965 181.671L214.913 177.242L215.613 176.99ZM212.642 178.057L215.414 181.51L214.768 181.742L211.909 178.321L212.642 178.057ZM215.42 178.808L213.264 179.582L213.059 179.013L215.215 178.239L215.42 178.808Z" fill="#9DA7B0"/>
<path d="M209.626 179.072L210.65 183.131L208.829 183.59C208.532 183.665 208.265 183.679 208.029 183.63C207.79 183.583 207.59 183.481 207.431 183.325C207.268 183.171 207.155 182.967 207.091 182.716C207.029 182.468 207.032 182.235 207.101 182.018C207.17 181.8 207.297 181.612 207.481 181.454C207.665 181.299 207.906 181.185 208.203 181.11L209.455 180.794L209.6 181.369L208.382 181.676C208.149 181.735 207.986 181.84 207.892 181.992C207.795 182.144 207.772 182.324 207.824 182.531C207.875 182.734 207.979 182.877 208.137 182.962C208.29 183.047 208.483 183.06 208.716 183.001L209.77 182.735L208.893 179.257L209.626 179.072Z" fill="#9DA7B0"/>
<path d="M203.201 180.536L203.471 182.277L205.393 184.433L204.491 184.572L202.899 182.648L203.301 182.586L202.371 184.901L201.543 185.029L202.724 182.393L202.454 180.652L203.201 180.536Z" fill="#9DA7B0"/>
<path d="M197.65 183.002L197.707 183.837L196.866 183.894L196.809 183.059L197.65 183.002Z" fill="#9DA7B0"/>
<path d="M192.634 181.349C193.2 181.36 193.625 181.53 193.909 181.858C194.193 182.185 194.329 182.649 194.317 183.25L194.268 185.627L193.512 185.612L193.563 183.124C193.571 182.74 193.492 182.452 193.325 182.258C193.159 182.069 192.922 181.971 192.616 181.965C192.31 181.958 192.07 182.047 191.895 182.229C191.721 182.415 191.63 182.699 191.622 183.078L191.571 185.572L190.815 185.556L190.864 183.173C190.876 182.576 191.033 182.12 191.334 181.805C191.631 181.489 192.065 181.337 192.634 181.349Z" fill="#9DA7B0"/>
<path d="M188.273 181.261L187.779 185.418L185.914 185.196C185.61 185.16 185.357 185.077 185.154 184.948C184.946 184.818 184.796 184.652 184.703 184.449C184.606 184.246 184.573 184.016 184.604 183.758C184.634 183.504 184.72 183.288 184.862 183.11C185.005 182.932 185.19 182.801 185.418 182.719C185.646 182.641 185.912 182.62 186.216 182.656L187.498 182.808L187.428 183.397L186.181 183.249C185.942 183.221 185.752 183.26 185.61 183.368C185.465 183.476 185.38 183.636 185.354 183.847C185.33 184.055 185.376 184.227 185.492 184.362C185.605 184.496 185.781 184.577 186.02 184.606L187.099 184.734L187.522 181.172L188.273 181.261Z" fill="#9DA7B0"/>
<path d="M179.926 179.953L179.083 183.44L180.433 183.766L180.293 184.349L176.857 183.517L176.998 182.935L178.348 183.262L179.191 179.775L179.926 179.953Z" fill="#9DA7B0"/>
<path d="M174.342 178.334C174.627 178.433 174.873 178.575 175.08 178.758C175.287 178.942 175.448 179.156 175.563 179.402C175.675 179.646 175.736 179.91 175.748 180.194C175.755 180.479 175.706 180.772 175.601 181.072C175.461 181.471 175.254 181.791 174.981 182.032C174.706 182.277 174.392 182.431 174.036 182.496C173.676 182.563 173.306 182.529 172.925 182.396C172.538 182.26 172.226 182.055 171.99 181.779C171.749 181.505 171.597 181.187 171.535 180.825C171.473 180.462 171.512 180.082 171.652 179.683C171.757 179.383 171.902 179.126 172.088 178.912C172.27 178.696 172.483 178.528 172.726 178.408C172.966 178.287 173.224 178.219 173.5 178.205C173.776 178.191 174.057 178.234 174.342 178.334ZM174.144 178.917C173.895 178.83 173.655 178.816 173.425 178.875C173.192 178.933 172.983 179.053 172.8 179.235C172.616 179.421 172.473 179.659 172.372 179.948C172.272 180.233 172.238 180.5 172.27 180.75C172.297 181.001 172.385 181.219 172.534 181.403C172.678 181.589 172.877 181.726 173.129 181.814C173.378 181.902 173.618 181.918 173.851 181.864C174.079 181.812 174.281 181.698 174.457 181.522C174.634 181.346 174.773 181.113 174.874 180.824C174.977 180.531 175.015 180.257 174.99 180.002C174.96 179.745 174.874 179.522 174.731 179.332C174.585 179.141 174.389 179.003 174.144 178.917Z" fill="#9DA7B0"/>
<path d="M167.897 175.825C167.55 176.392 167.119 176.897 166.605 177.338C166.091 177.78 165.508 178.156 164.855 178.468L164.904 178.343L166.976 179.374L166.71 179.91L164.024 178.574L164.264 178.09C164.694 177.853 165.087 177.603 165.443 177.338C165.794 177.076 166.113 176.791 166.401 176.483C166.684 176.174 166.936 175.832 167.157 175.457L167.897 175.825Z" fill="#9DA7B0"/>
<path d="M164.215 173.989L159.389 175.918L158.87 175.596L163.697 173.667L164.215 173.989ZM161.732 172.377C161.87 172.463 161.98 172.577 162.061 172.719C162.142 172.86 162.178 173.022 162.17 173.204C162.162 173.386 162.093 173.581 161.965 173.788C161.836 173.996 161.694 174.143 161.54 174.229C161.38 174.317 161.219 174.356 161.056 174.347C160.894 174.337 160.742 174.288 160.6 174.2C160.452 174.108 160.337 173.991 160.256 173.849C160.172 173.706 160.136 173.544 160.147 173.364C160.157 173.187 160.226 172.995 160.355 172.788C160.484 172.58 160.628 172.433 160.787 172.345C160.947 172.257 161.11 172.219 161.276 172.231C161.438 172.241 161.591 172.289 161.732 172.377ZM161.499 172.753C161.387 172.683 161.265 172.671 161.132 172.716C160.999 172.761 160.877 172.873 160.766 173.051C160.66 173.222 160.617 173.375 160.638 173.511C160.653 173.648 160.718 173.753 160.833 173.824C160.948 173.896 161.071 173.908 161.201 173.861C161.325 173.815 161.44 173.707 161.547 173.535C161.657 173.358 161.706 173.201 161.695 173.066C161.679 172.929 161.614 172.824 161.499 172.753ZM162.52 175.407C162.661 175.494 162.773 175.609 162.854 175.751C162.934 175.892 162.971 176.054 162.963 176.236C162.951 176.416 162.881 176.61 162.752 176.817C162.623 177.025 162.482 177.172 162.328 177.258C162.168 177.346 162.007 177.385 161.844 177.376C161.681 177.366 161.529 177.317 161.388 177.229C161.24 177.137 161.125 177.02 161.044 176.878C160.963 176.737 160.929 176.576 160.94 176.396C160.949 176.219 161.018 176.027 161.147 175.82C161.276 175.613 161.42 175.465 161.58 175.377C161.74 175.289 161.901 175.25 162.063 175.26C162.226 175.27 162.378 175.319 162.52 175.407ZM162.287 175.782C162.175 175.712 162.052 175.7 161.919 175.745C161.786 175.79 161.665 175.902 161.554 176.08C161.448 176.251 161.405 176.404 161.425 176.54C161.44 176.678 161.506 176.782 161.621 176.854C161.736 176.925 161.858 176.939 161.985 176.895C162.11 176.849 162.226 176.739 162.334 176.564C162.445 176.387 162.494 176.23 162.482 176.095C162.467 175.958 162.402 175.853 162.287 175.782Z" fill="#9DA7B0"/>
<path d="M157.447 169.579L153.587 171.814L153.086 171.398L156.875 169.103L157.447 169.579ZM155.019 167.561L153.453 171.702L152.925 171.264L154.42 167.063L155.019 167.561ZM155.783 170.335L154.021 168.871L154.408 168.406L156.169 169.87L155.783 170.335Z" fill="#9DA7B0"/>
<path d="M152.62 165.483L149.648 168.43L148.326 167.097C148.11 166.879 147.963 166.657 147.885 166.429C147.803 166.198 147.789 165.975 147.842 165.759C147.893 165.539 148.01 165.338 148.194 165.156C148.376 164.975 148.578 164.86 148.8 164.809C149.022 164.758 149.248 164.771 149.478 164.849C149.705 164.929 149.927 165.078 150.142 165.295L151.051 166.212L150.63 166.63L149.746 165.738C149.577 165.567 149.403 165.48 149.225 165.477C149.044 165.47 148.878 165.542 148.726 165.692C148.578 165.84 148.507 166.003 148.515 166.181C148.519 166.356 148.606 166.529 148.776 166.7L149.541 167.472L152.088 164.946L152.62 165.483Z" fill="#9DA7B0"/>
<path d="M148.085 160.689L146.724 161.809L145.85 164.561L145.27 163.857L146.114 161.506L146.372 161.82L143.907 162.2L143.375 161.553L146.244 161.225L147.605 160.106L148.085 160.689Z" fill="#9DA7B0"/>
<path d="M143.123 157.16L142.433 157.635L141.955 156.94L142.645 156.465L143.123 157.16Z" fill="#9DA7B0"/>
<path d="M142.035 152.073C142.314 152.566 142.384 153.018 142.247 153.429C142.11 153.841 141.78 154.194 141.257 154.49L139.187 155.66L138.815 155.002L140.982 153.777C141.316 153.588 141.523 153.373 141.605 153.131C141.683 152.891 141.647 152.638 141.496 152.371C141.345 152.105 141.147 151.943 140.901 151.886C140.652 151.831 140.362 151.897 140.031 152.084L137.86 153.311L137.488 152.653L139.563 151.48C140.083 151.186 140.555 151.088 140.98 151.187C141.404 151.281 141.755 151.577 142.035 152.073Z" fill="#9DA7B0"/>
<path d="M139.898 148.292L136.069 149.983L135.31 148.265C135.186 147.985 135.129 147.725 135.137 147.484C135.143 147.24 135.21 147.026 135.337 146.843C135.462 146.656 135.643 146.51 135.881 146.405C136.115 146.302 136.345 146.266 136.57 146.298C136.796 146.329 137.003 146.423 137.19 146.577C137.373 146.734 137.527 146.952 137.65 147.232L138.172 148.413L137.629 148.652L137.122 147.503C137.025 147.284 136.894 147.14 136.729 147.073C136.562 147.003 136.381 147.011 136.186 147.097C135.994 147.181 135.87 147.308 135.814 147.477C135.755 147.643 135.775 147.836 135.872 148.055L136.311 149.05L139.593 147.601L139.898 148.292Z" fill="#9DA7B0"/>
<path d="M136.774 140.436L133.343 141.484L133.749 142.813L133.176 142.988L132.144 139.607L132.717 139.432L133.123 140.761L136.554 139.713L136.774 140.436Z" fill="#9DA7B0"/>
<path d="M135.323 134.786C135.382 135.083 135.385 135.367 135.332 135.638C135.28 135.909 135.177 136.157 135.024 136.381C134.87 136.602 134.674 136.789 134.436 136.943C134.193 137.094 133.916 137.2 133.604 137.262C133.19 137.345 132.809 137.33 132.463 137.217C132.113 137.105 131.819 136.912 131.583 136.639C131.343 136.363 131.183 136.027 131.104 135.632C131.024 135.229 131.043 134.855 131.16 134.512C131.273 134.165 131.47 133.873 131.751 133.636C132.031 133.398 132.379 133.238 132.793 133.156C133.105 133.094 133.4 133.088 133.679 133.139C133.958 133.187 134.21 133.285 134.437 133.433C134.664 133.578 134.853 133.765 135.006 133.996C135.158 134.226 135.264 134.49 135.323 134.786ZM134.72 134.912C134.668 134.654 134.559 134.44 134.391 134.272C134.222 134.1 134.013 133.982 133.763 133.917C133.509 133.853 133.232 133.851 132.932 133.911C132.635 133.97 132.388 134.076 132.189 134.23C131.986 134.381 131.843 134.568 131.761 134.79C131.674 135.008 131.657 135.249 131.709 135.511C131.76 135.77 131.868 135.985 132.033 136.158C132.193 136.328 132.394 136.444 132.636 136.507C132.878 136.569 133.149 136.571 133.449 136.511C133.753 136.45 134.009 136.344 134.215 136.192C134.422 136.037 134.57 135.849 134.661 135.629C134.751 135.406 134.77 135.167 134.72 134.912Z" fill="#9DA7B0"/>
<path d="M134.212 127.997C133.547 127.987 132.893 127.874 132.252 127.657C131.61 127.439 130.989 127.129 130.388 126.726L130.52 126.705L130.69 129.013L130.092 129.057L129.873 126.065L130.412 126.025C130.835 126.274 131.25 126.484 131.659 126.656C132.064 126.825 132.472 126.954 132.883 127.045C133.294 127.131 133.716 127.174 134.152 127.173L134.212 127.997Z" fill="#9DA7B0"/>
<path d="M133.912 123.812L129.792 120.643L129.805 120.032L133.925 123.201L133.912 123.812ZM134.033 120.854C134.029 121.017 133.987 121.169 133.907 121.311C133.826 121.453 133.705 121.567 133.545 121.652C133.384 121.738 133.182 121.778 132.937 121.773C132.693 121.768 132.495 121.721 132.341 121.633C132.184 121.54 132.069 121.422 131.994 121.276C131.92 121.131 131.884 120.976 131.888 120.809C131.891 120.635 131.933 120.477 132.014 120.335C132.095 120.189 132.215 120.075 132.376 119.994C132.533 119.912 132.733 119.873 132.977 119.878C133.221 119.883 133.422 119.932 133.579 120.025C133.736 120.117 133.852 120.238 133.926 120.387C134.001 120.532 134.036 120.688 134.033 120.854ZM133.591 120.845C133.594 120.713 133.542 120.602 133.435 120.51C133.328 120.419 133.171 120.371 132.961 120.366C132.76 120.362 132.606 120.404 132.499 120.49C132.389 120.573 132.332 120.683 132.329 120.818C132.327 120.954 132.379 121.066 132.485 121.153C132.588 121.237 132.74 121.281 132.942 121.285C133.151 121.289 133.311 121.252 133.421 121.173C133.531 121.09 133.588 120.981 133.591 120.845ZM131.828 123.076C131.825 123.242 131.783 123.397 131.702 123.538C131.622 123.68 131.501 123.794 131.34 123.88C131.18 123.962 130.977 124 130.733 123.995C130.489 123.99 130.29 123.943 130.137 123.854C129.98 123.762 129.864 123.643 129.79 123.498C129.715 123.353 129.68 123.197 129.683 123.03C129.687 122.856 129.729 122.698 129.81 122.556C129.89 122.415 130.011 122.303 130.171 122.221C130.328 122.139 130.529 122.1 130.773 122.106C131.017 122.111 131.218 122.16 131.375 122.252C131.532 122.345 131.647 122.463 131.722 122.608C131.796 122.753 131.832 122.909 131.828 123.076ZM131.386 123.066C131.389 122.935 131.337 122.823 131.231 122.732C131.124 122.64 130.966 122.592 130.757 122.588C130.555 122.584 130.401 122.625 130.295 122.712C130.185 122.795 130.128 122.904 130.125 123.04C130.122 123.175 130.172 123.287 130.275 123.374C130.378 123.458 130.532 123.502 130.737 123.506C130.947 123.511 131.106 123.473 131.217 123.394C131.327 123.311 131.384 123.202 131.386 123.066Z" fill="#9DA7B0"/>
<path d="M134.257 115.72L130.366 113.538L130.469 112.895L134.374 114.985L134.257 115.72ZM134.755 112.602L130.394 113.366L130.502 112.688L134.878 111.833L134.755 112.602ZM132.758 114.674L133.119 112.411L133.716 112.507L133.355 114.769L132.758 114.674Z" fill="#9DA7B0"/>
<path d="M135.319 109.477L131.269 108.418L131.744 106.601C131.822 106.305 131.938 106.065 132.095 105.881C132.252 105.694 132.437 105.568 132.65 105.504C132.864 105.436 133.097 105.434 133.348 105.5C133.596 105.565 133.798 105.68 133.955 105.845C134.112 106.01 134.216 106.212 134.266 106.449C134.312 106.686 134.297 106.952 134.219 107.248L133.893 108.497L133.319 108.347L133.637 107.132C133.697 106.9 133.684 106.706 133.596 106.551C133.51 106.392 133.363 106.285 133.157 106.231C132.954 106.178 132.778 106.201 132.629 106.298C132.48 106.391 132.375 106.554 132.315 106.786L132.04 107.838L135.51 108.746L135.319 109.477Z" fill="#9DA7B0"/>
<path d="M137.138 103.132L135.483 102.528L132.667 103.172L132.98 102.315L135.434 101.848L135.294 102.231L133.715 100.299L134.002 99.5125L135.742 101.818L137.397 102.422L137.138 103.132Z" fill="#9DA7B0"/>
<path d="M137.657 97.0769L136.899 96.7231L137.255 95.959L138.014 96.3127L137.657 97.0769Z" fill="#9DA7B0"/>
<path d="M141.499 93.5435C141.215 94.0332 140.861 94.3232 140.437 94.4134C140.013 94.5037 139.541 94.3982 139.021 94.097L136.964 92.9047L137.342 92.2507L139.496 93.4983C139.828 93.6907 140.118 93.7607 140.368 93.7084C140.615 93.6541 140.815 93.4945 140.968 93.2295C141.122 92.9645 141.161 92.7116 141.085 92.4708C141.006 92.228 140.803 92.0114 140.474 91.8209L138.316 90.5704L138.695 89.9163L140.757 91.1115C141.274 91.4108 141.597 91.7685 141.728 92.1847C141.861 92.5976 141.784 93.0505 141.499 93.5435Z" fill="#9DA7B0"/>
<path d="M143.659 89.8052L140.259 87.3633L141.354 85.8378C141.533 85.589 141.728 85.407 141.94 85.2918C142.154 85.1733 142.372 85.1223 142.594 85.1386C142.818 85.1518 143.036 85.2342 143.247 85.3857C143.454 85.5349 143.602 85.7148 143.689 85.9255C143.777 86.1362 143.801 86.3613 143.763 86.6009C143.721 86.8383 143.611 87.0814 143.432 87.3301L142.679 88.3786L142.198 88.0326L142.93 87.0125C143.07 86.8173 143.127 86.6315 143.101 86.4553C143.077 86.2759 142.979 86.124 142.806 85.9996C142.636 85.8775 142.463 85.835 142.289 85.8719C142.117 85.9057 141.961 86.0202 141.821 86.2155L141.186 87.0986L144.1 89.1913L143.659 89.8052Z" fill="#9DA7B0"/>
<path d="M148.857 83.106L146.212 80.6832L145.273 81.7082L144.832 81.3037L147.219 78.6964L147.66 79.1008L146.722 80.1258L149.368 82.5485L148.857 83.106Z" fill="#9DA7B0"/>
<path d="M152.958 79.0061C152.733 79.208 152.49 79.3555 152.23 79.4485C151.969 79.5415 151.704 79.5793 151.433 79.5619C151.165 79.5419 150.904 79.4688 150.65 79.3426C150.397 79.2108 150.164 79.0267 149.952 78.7901C149.669 78.4757 149.489 78.1406 149.409 77.7849C149.327 77.4264 149.343 77.0759 149.458 76.7335C149.572 76.3856 149.78 76.077 150.08 75.8077C150.386 75.5333 150.716 75.359 151.071 75.2849C151.427 75.2053 151.779 75.2256 152.126 75.346C152.474 75.4663 152.789 75.6837 153.071 75.9982C153.283 76.2347 153.438 76.486 153.536 76.7521C153.637 77.0156 153.682 77.2829 153.67 77.554C153.661 77.8226 153.596 78.0812 153.476 78.33C153.355 78.5788 153.183 78.8041 152.958 79.0061ZM152.542 78.5513C152.738 78.3752 152.865 78.1721 152.925 77.942C152.986 77.7092 152.982 77.4688 152.91 77.2206C152.836 76.9696 152.696 76.7301 152.492 76.5022C152.29 76.2771 152.072 76.1185 151.838 76.0263C151.605 75.9286 151.372 75.9009 151.139 75.9432C150.906 75.98 150.69 76.0878 150.491 76.2664C150.295 76.4425 150.165 76.6454 150.1 76.8753C150.036 77.0996 150.039 77.3317 150.108 77.5715C150.177 77.8114 150.314 78.0452 150.519 78.2731C150.726 78.5039 150.948 78.6696 151.184 78.7702C151.423 78.8682 151.66 78.9002 151.895 78.8663C152.133 78.8297 152.348 78.7247 152.542 78.5513Z" fill="#9DA7B0"/>
<path d="M158.267 74.5567C157.937 73.9794 157.701 73.3593 157.561 72.6965C157.421 72.0337 157.371 71.3411 157.412 70.6188L157.498 70.7219L155.598 72.0437L155.256 71.5521L157.719 69.8384L158.028 70.2823C158.029 70.7726 158.06 71.2376 158.12 71.6773C158.181 72.1116 158.278 72.5285 158.409 72.928C158.544 73.3253 158.723 73.711 158.945 74.0851L158.267 74.5567Z" fill="#9DA7B0"/>
<path d="M161.638 72.2153L162.264 67.0548L162.796 66.7548L162.169 71.9152L161.638 72.2153ZM164.244 70.8113C164.102 70.8913 163.949 70.9328 163.786 70.9358C163.623 70.9388 163.464 70.893 163.308 70.7984C163.153 70.7038 163.015 70.5502 162.895 70.3375C162.775 70.1248 162.714 69.93 162.712 69.7531C162.711 69.5709 162.755 69.4107 162.841 69.2727C162.928 69.1347 163.044 69.0248 163.189 68.9428C163.341 68.8571 163.499 68.8127 163.662 68.8098C163.828 68.8049 163.987 68.8507 164.14 68.9472C164.29 69.0403 164.425 69.1932 164.545 69.4059C164.665 69.6185 164.726 69.816 164.726 69.9982C164.727 70.1804 164.682 70.3415 164.592 70.4814C164.505 70.6194 164.389 70.7294 164.244 70.8113ZM164.026 70.4265C164.141 70.3617 164.211 70.2602 164.235 70.1218C164.259 69.9835 164.22 69.8232 164.117 69.6409C164.018 69.4653 163.904 69.3539 163.775 69.3066C163.647 69.254 163.525 69.261 163.406 69.3277C163.288 69.3944 163.219 69.4959 163.198 69.6323C163.178 69.7635 163.218 69.9169 163.317 70.0924C163.42 70.2747 163.534 70.3931 163.658 70.4476C163.785 70.5002 163.908 70.4932 164.026 70.4265ZM161.209 70.0472C161.064 70.1292 160.91 70.1716 160.747 70.1746C160.584 70.1776 160.424 70.1318 160.269 70.0372C160.116 69.9407 159.98 69.7861 159.86 69.5734C159.74 69.3608 159.679 69.1659 159.677 68.989C159.677 68.8068 159.72 68.6467 159.807 68.5086C159.894 68.3706 160.01 68.2607 160.155 68.1788C160.307 68.093 160.464 68.0487 160.627 68.0457C160.79 68.0427 160.948 68.0895 161.1 68.186C161.25 68.2791 161.386 68.432 161.506 68.6446C161.626 68.8573 161.686 69.0548 161.686 69.237C161.687 69.4192 161.644 69.5793 161.557 69.7173C161.47 69.8554 161.354 69.9653 161.209 70.0472ZM160.992 69.6624C161.107 69.5976 161.176 69.4961 161.2 69.3577C161.225 69.2194 161.185 69.0591 161.083 68.8768C160.984 68.7012 160.869 68.5898 160.74 68.5425C160.613 68.4899 160.49 68.4969 160.372 68.5636C160.254 68.6303 160.183 68.7301 160.16 68.8632C160.141 68.9944 160.182 69.1494 160.283 69.3283C160.385 69.5106 160.499 69.629 160.623 69.6835C160.751 69.7361 160.874 69.7291 160.992 69.6624Z" fill="#9DA7B0"/>
<path d="M168.769 68.3942L168.668 63.9345L169.274 63.6958L169.461 68.1214L168.769 68.3942ZM171.706 67.237L168.83 63.8705L169.469 63.619L172.431 66.9514L171.706 67.237ZM168.907 66.5713L171.038 65.7316L171.26 66.2942L169.128 67.1339L168.907 66.5713Z" fill="#9DA7B0"/>
<path d="M174.672 66.1351L173.524 62.1094L175.33 61.5943C175.624 61.5103 175.89 61.4888 176.128 61.5299C176.369 61.57 176.571 61.6654 176.735 61.8161C176.903 61.9658 177.022 62.1655 177.094 62.4153C177.164 62.6613 177.168 62.894 177.105 63.1133C177.043 63.3326 176.922 63.5242 176.743 63.6882C176.563 63.8483 176.326 63.9704 176.031 64.0544L174.79 64.4085L174.628 63.8381L175.835 63.4937C176.066 63.4278 176.226 63.3176 176.315 63.1632C176.408 63.0078 176.425 62.8276 176.367 62.6226C176.309 62.4213 176.201 62.281 176.041 62.2016C175.885 62.1211 175.692 62.1138 175.461 62.1797L174.415 62.478L175.399 65.9278L174.672 66.1351Z" fill="#9DA7B0"/>
<path d="M181.078 64.4683L180.756 62.7362L178.77 60.6392L179.667 60.4725L181.317 62.3482L180.917 62.4225L181.777 60.0806L182.6 59.9277L181.499 62.5982L181.821 64.3302L181.078 64.4683Z" fill="#9DA7B0"/>
<path d="M186.525 61.8404L186.443 61.0072L187.282 60.9246L187.364 61.7578L186.525 61.8404Z" fill="#9DA7B0"/>
<defs>
<filter id="filter0_dddddi_1_2857" x="120.814" y="52.1264" width="144.039" height="147.269" filterUnits="userSpaceOnUse" color-interpolation-filters="sRGB">
<feFlood flood-opacity="0" result="BackgroundImageFix"/>
<feColorMatrix in="SourceAlpha" type="matrix" values="0 0 0 0 0 0 0 0 0 0 0 0 0 0 0 0 0 0 127 0" result="hardAlpha"/>
<feOffset dy="0.403851"/>
<feGaussianBlur stdDeviation="0.302888"/>
<feColorMatrix type="matrix" values="0 0 0 0 0.0431373 0 0 0 0 0.0980392 0 0 0 0 0.156863 0 0 0 0.04 0"/>
<feBlend mode="normal" in2="BackgroundImageFix" result="effect1_dropShadow_1_2857"/>
<feColorMatrix in="SourceAlpha" type="matrix" values="0 0 0 0 0 0 0 0 0 0 0 0 0 0 0 0 0 0 127 0" result="hardAlpha"/>
<feOffset dy="1.21155"/>
<feGaussianBlur stdDeviation="0.605776"/>
<feColorMatrix type="matrix" values="0 0 0 0 0.0431373 0 0 0 0 0.0980392 0 0 0 0 0.156863 0 0 0 0.03 0"/>
<feBlend mode="normal" in2="effect1_dropShadow_1_2857" result="effect2_dropShadow_1_2857"/>
<feColorMatrix in="SourceAlpha" type="matrix" values="0 0 0 0 0 0 0 0 0 0 0 0 0 0 0 0 0 0 127 0" result="hardAlpha"/>
<feOffset dy="2.82696"/>
<feGaussianBlur stdDeviation="0.807702"/>
<feColorMatrix type="matrix" values="0 0 0 0 0.0431373 0 0 0 0 0.0980392 0 0 0 0 0.156863 0 0 0 0.02 0"/>
<feBlend mode="normal" in2="effect2_dropShadow_1_2857" result="effect3_dropShadow_1_2857"/>
<feColorMatrix in="SourceAlpha" type="matrix" values="0 0 0 0 0 0 0 0 0 0 0 0 0 0 0 0 0 0 127 0" result="hardAlpha"/>
<feOffset dy="5.04814"/>
<feGaussianBlur stdDeviation="1.00963"/>
<feColorMatrix type="matrix" values="0 0 0 0 0.0431373 0 0 0 0 0.0980392 0 0 0 0 0.156863 0 0 0 0.01 0"/>
<feBlend mode="normal" in2="effect3_dropShadow_1_2857" result="effect4_dropShadow_1_2857"/>
<feColorMatrix in="SourceAlpha" type="matrix" values="0 0 0 0 0 0 0 0 0 0 0 0 0 0 0 0 0 0 127 0" result="hardAlpha"/>
<feOffset dy="1.16667"/>
<feComposite in2="hardAlpha" operator="out"/>
<feColorMatrix type="matrix" values="0 0 0 0 0.870588 0 0 0 0 0.882353 0 0 0 0 0.894118 0 0 0 1 0"/>
<feBlend mode="normal" in2="effect4_dropShadow_1_2857" result="effect5_dropShadow_1_2857"/>
<feBlend mode="normal" in="SourceGraphic" in2="effect5_dropShadow_1_2857" result="shape"/>
<feColorMatrix in="SourceAlpha" type="matrix" values="0 0 0 0 0 0 0 0 0 0 0 0 0 0 0 0 0 0 127 0" result="hardAlpha"/>
<feMorphology radius="0.527871" operator="erode" in="SourceAlpha" result="effect6_innerShadow_1_2857"/>
<feOffset/>
<feGaussianBlur stdDeviation="0.452461"/>
<feComposite in2="hardAlpha" operator="arithmetic" k2="-1" k3="1"/>
<feColorMatrix type="matrix" values="0 0 0 0 1 0 0 0 0 1 0 0 0 0 1 0 0 0 0.08 0"/>
<feBlend mode="normal" in2="shape" result="effect6_innerShadow_1_2857"/>
</filter>
<filter id="filter1_i_1_2857" x="126.589" y="56.0836" width="132.797" height="133.557" filterUnits="userSpaceOnUse" color-interpolation-filters="sRGB">
<feFlood flood-opacity="0" result="BackgroundImageFix"/>
<feBlend mode="normal" in="SourceGraphic" in2="BackgroundImageFix" result="shape"/>
<feColorMatrix in="SourceAlpha" type="matrix" values="0 0 0 0 0 0 0 0 0 0 0 0 0 0 0 0 0 0 127 0" result="hardAlpha"/>
<feOffset dy="0.760171"/>
<feGaussianBlur stdDeviation="0.760171"/>
<feComposite in2="hardAlpha" operator="arithmetic" k2="-1" k3="1"/>
<feColorMatrix type="matrix" values="0 0 0 0 0 0 0 0 0 0 0 0 0 0 0 0 0 0 0.08 0"/>
<feBlend mode="normal" in2="shape" result="effect1_innerShadow_1_2857"/>
</filter>
<radialGradient id="paint0_radial_1_2857" cx="0" cy="0" r="1" gradientUnits="userSpaceOnUse" gradientTransform="translate(192.833 43.5753) rotate(90) scale(148.753 152.792)">
<stop stop-color="#707D8A" stop-opacity="0"/>
<stop offset="1" stop-color="#707D8A" stop-opacity="0.03"/>
</radialGradient>
<linearGradient id="paint1_linear_1_2857" x1="141.916" y1="122.542" x2="244.176" y2="122.542" gradientUnits="userSpaceOnUse">
<stop stop-color="#3E6DD2"/>
<stop offset="1" stop-color="#B666DB"/>
</linearGradient>
<linearGradient id="paint2_linear_1_2857" x1="193.097" y1="107.718" x2="193.097" y2="137.468" gradientUnits="userSpaceOnUse">
<stop stop-color="#9DA7B0" stop-opacity="0.4"/>
<stop offset="1" stop-color="#9DA7B0" stop-opacity="0.6"/>
</linearGradient>
</defs>
</svg>
