<svg width="32" height="32" viewBox="0 0 32 32" fill="none" xmlns="http://www.w3.org/2000/svg">
<rect width="32" height="32" fill="white"/>
<path fill-rule="evenodd" clip-rule="evenodd" d="M22.9633 8H16.1674C15.8735 8 15.6322 8.24478 15.6322 8.54277V14.6565C15.6322 15.3801 14.9814 15.9973 14.2257 15.9973H9.0409C8.82051 15.9973 8.63158 16.125 8.54239 16.3325C8.45842 16.5401 8.50038 16.7689 8.65782 16.9285L15.4747 23.8404C15.5797 23.9468 15.7056 24 15.8525 24H22.2234C22.4438 24 22.6327 23.8723 22.7219 23.6648C22.8059 23.4573 22.7639 23.2284 22.6065 23.0688L15.9155 16.29L15.7896 16.1623L15.6269 16.0027H15.6741C19.7989 15.9761 23.1995 12.7037 23.4986 8.59065C23.5091 8.43635 23.4619 8.29266 23.3569 8.18091C23.2519 8.05854 23.1207 8 22.9633 8Z" fill="#0B1928"/>
</svg>
